M48
; DRILL file KiCad 10.0.6 date 2026-10-05T19:18:35
; FORMAT={-:-/ absolute / metric / decimal}
; #@! TF.CreationDate,2026-10-05T19:18:35+07:00
; #@! TF.GenerationSoftware,Kicad,Pcbnew,10.0.6
; #@! TF.FileFunction,MixedPlating,1,2
FMAT,2
METRIC
; #@! TA.AperFunction,Plated,PTH,ViaDrill
T1C0.300
; #@! TA.AperFunction,Plated,PTH,ComponentDrill
T2C0.550
; #@! TA.AperFunction,Plated,PTH,ComponentDrill
T3C0.850
; #@! TA.AperFunction,Plated,PTH,ComponentDrill
T4C1.000
; #@! TA.AperFunction,NonPlated,NPTH,ComponentDrill
T5C0.800
; #@! TA.AperFunction,NonPlated,NPTH,ComponentDrill
T6C0.900
; #@! TA.AperFunction,NonPlated,NPTH,ComponentDrill
T7C2.100
%
G90
G05
T1
X101.406Y-69.527
X104.852Y-78.864
X106.75Y-74.25
X108.155Y-74.178
X108.72Y-84.263
X108.76Y-81.171
X109.0Y-76.627
X109.767Y-72.843
X112.677Y-88.25
X113.057Y-78.427
X113.53Y-74.58
X113.977Y-88.25
X114.77Y-83.277
X115.75Y-85.75
X117.389Y-85.75
X118.04Y-80.327
X122.722Y-75.441
X127.298Y-82.684
X127.5Y-78.5
X127.5Y-79.5
X128.144Y-82.69
X130.991Y-74.724
X131.312Y-83.141
X134.298Y-81.079
X134.75Y-83.0
X135.188Y-81.953
T4
X107.19Y-64.0
X109.73Y-64.0
X110.787Y-90.675
X112.27Y-64.0
X113.327Y-90.675
X114.81Y-64.0
X115.867Y-90.675
X118.407Y-90.675
X122.19Y-64.021
X124.73Y-64.021
X127.27Y-64.021
X129.81Y-64.021
T5
X133.15Y-73.532
X133.15Y-78.532
T6
X99.128Y-70.998
X99.128Y-73.998
T7
X100.0Y-65.0
X100.0Y-90.0
X135.0Y-65.0
X135.0Y-90.0
T2
G00X135.575Y-72.157
M15
G01X136.225Y-72.157
M16
G05
G00X135.575Y-79.907
M15
G01X136.225Y-79.907
M16
G05
T3
G00X131.825Y-72.307
M15
G01X132.375Y-72.307
M16
G05
G00X131.825Y-79.757
M15
G01X132.375Y-79.757
M16
G05
M30
