%TF.GenerationSoftware,KiCad,Pcbnew,10.0.6*%
%TF.CreationDate,2026-10-05T19:18:49+07:00*%
%TF.ProjectId,STM32,53544d33-322e-46b6-9963-61645f706362,rev?*%
%TF.SameCoordinates,Original*%
%TF.FileFunction,Copper,L2,Bot*%
%TF.FilePolarity,Positive*%
%FSLAX46Y46*%
G04 Gerber Fmt 4.6, Leading zero omitted, Abs format (unit mm)*
G04 Created by KiCad (PCBNEW 10.0.6) date 2026-10-05 19:18:49*
%MOMM*%
%LPD*%
G01*
G04 APERTURE LIST*
%TA.AperFunction,ComponentPad*%
%ADD10C,1.700000*%
%TD*%
%TA.AperFunction,ComponentPad*%
%ADD11R,1.700000X1.700000*%
%TD*%
%TA.AperFunction,ComponentPad*%
%ADD12O,1.800000X1.150000*%
%TD*%
%TA.AperFunction,ComponentPad*%
%ADD13O,2.000000X1.450000*%
%TD*%
%TA.AperFunction,ViaPad*%
%ADD14C,0.700000*%
%TD*%
%TA.AperFunction,ViaPad*%
%ADD15C,0.600000*%
%TD*%
%TA.AperFunction,Conductor*%
%ADD16C,0.500000*%
%TD*%
G04 APERTURE END LIST*
D10*
%TO.P,J3,4,Pin_4_4*%
%TO.N,GND*%
X122190000Y-64020898D03*
%TO.P,J3,3,Pin_3_3*%
%TO.N,/SWCLK*%
X124730000Y-64020898D03*
%TO.P,J3,2,Pin_2_2*%
%TO.N,/SWDIO*%
X127270000Y-64020898D03*
D11*
%TO.P,J3,1,Pin_1_1*%
%TO.N,+3.3V*%
X129810000Y-64020898D03*
%TD*%
D10*
%TO.P,J1,4,Pin_4_4*%
%TO.N,GND*%
X107190000Y-64000000D03*
%TO.P,J1,3,Pin_3_3*%
%TO.N,/USART1_RX*%
X109730000Y-64000000D03*
%TO.P,J1,2,Pin_2_2*%
%TO.N,/USART1_TX*%
X112270000Y-64000000D03*
D11*
%TO.P,J1,1,Pin_1_1*%
%TO.N,+3.3V*%
X114810000Y-64000000D03*
%TD*%
D10*
%TO.P,J2,4,Pin_4_4*%
%TO.N,GND*%
X118406894Y-90675388D03*
%TO.P,J2,3,Pin_3_3*%
%TO.N,/I2C2_SDA*%
X115866894Y-90675388D03*
%TO.P,J2,2,Pin_2_2*%
%TO.N,/I2C2_SCL*%
X113326894Y-90675388D03*
D11*
%TO.P,J2,1,Pin_1_1*%
%TO.N,+3.3V*%
X110786894Y-90675388D03*
%TD*%
D12*
%TO.P,J4,SH,Shield_SH*%
%TO.N,unconnected-(J4-Shield-PadSH)_1*%
X135899957Y-72157094D03*
D13*
%TO.N,unconnected-(J4-Shield-PadSH)*%
X132099957Y-72307094D03*
%TO.N,unconnected-(J4-Shield-PadSH)_2*%
X132099957Y-79757094D03*
D12*
%TO.N,unconnected-(J4-Shield-PadSH)_3*%
X135899957Y-79907094D03*
%TD*%
D14*
%TO.N,GND*%
X106750000Y-74250000D03*
X104851941Y-78863567D03*
%TO.N,+3.3V*%
X117389341Y-85750000D03*
X115750000Y-85750000D03*
D15*
%TO.N,GND*%
X113056699Y-78426912D03*
X131312007Y-83140993D03*
X127500000Y-79500000D03*
X101406282Y-69527387D03*
X113530017Y-74580046D03*
X108759861Y-81170638D03*
X128144037Y-82689640D03*
X122722222Y-75440686D03*
X127297926Y-82683681D03*
X118040023Y-80326566D03*
X135187765Y-81952978D03*
X108719838Y-84263484D03*
X108154801Y-74178177D03*
X109000000Y-76627313D03*
X130990942Y-74724043D03*
D14*
X109766972Y-72843349D03*
D15*
X127500000Y-78500000D03*
X114769522Y-83277342D03*
%TO.N,+3.3V*%
X112676894Y-88250000D03*
X113976894Y-88250000D03*
D14*
X134750000Y-83000000D03*
X134298174Y-81078772D03*
%TD*%
%TO.N,+3.3V*%
D16*
X115750000Y-85750000D02*
X117389341Y-85750000D01*
X112676894Y-88250000D02*
X113976894Y-88250000D01*
X134298174Y-82548174D02*
X134298174Y-81078772D01*
X134750000Y-83000000D02*
X134298174Y-82548174D01*
%TD*%
%TA.AperFunction,Conductor*%
%TO.N,GND*%
G36*
X135003243Y-62000669D02*
G01*
X135280182Y-62015184D01*
X135287575Y-62015794D01*
X135349875Y-62022813D01*
X135355353Y-62023555D01*
X135597128Y-62061848D01*
X135605289Y-62063423D01*
X135660830Y-62076100D01*
X135665181Y-62077179D01*
X135908155Y-62142284D01*
X135917002Y-62145014D01*
X135959603Y-62159921D01*
X135963079Y-62161195D01*
X136209389Y-62255745D01*
X136218724Y-62259777D01*
X136239298Y-62269685D01*
X136241744Y-62270897D01*
X136493968Y-62399411D01*
X136505183Y-62405885D01*
X136757619Y-62569819D01*
X136768109Y-62577441D01*
X136979848Y-62748904D01*
X137002010Y-62766850D01*
X137011655Y-62775535D01*
X137224464Y-62988344D01*
X137233149Y-62997989D01*
X137422558Y-63231890D01*
X137430187Y-63242391D01*
X137594100Y-63494795D01*
X137600590Y-63506035D01*
X137729099Y-63758249D01*
X137730334Y-63760742D01*
X137740215Y-63781260D01*
X137744259Y-63790624D01*
X137838800Y-64036912D01*
X137840077Y-64040395D01*
X137854984Y-64082996D01*
X137857718Y-64091857D01*
X137922806Y-64334766D01*
X137923923Y-64339269D01*
X137936569Y-64394679D01*
X137938150Y-64402872D01*
X137976440Y-64644627D01*
X137977187Y-64650142D01*
X137984204Y-64712424D01*
X137984814Y-64719816D01*
X137999330Y-64996755D01*
X137999500Y-65003246D01*
X137999500Y-89996753D01*
X137999330Y-90003244D01*
X137984814Y-90280182D01*
X137984204Y-90287574D01*
X137977187Y-90349856D01*
X137976440Y-90355371D01*
X137938150Y-90597126D01*
X137936569Y-90605319D01*
X137923923Y-90660729D01*
X137922806Y-90665232D01*
X137857718Y-90908141D01*
X137854984Y-90917002D01*
X137840077Y-90959603D01*
X137838800Y-90963086D01*
X137744259Y-91209374D01*
X137740215Y-91218737D01*
X137730325Y-91239274D01*
X137729090Y-91241767D01*
X137600593Y-91493959D01*
X137594103Y-91505200D01*
X137430187Y-91757608D01*
X137422558Y-91768109D01*
X137233149Y-92002010D01*
X137224464Y-92011655D01*
X137011655Y-92224464D01*
X137002010Y-92233149D01*
X136768109Y-92422558D01*
X136757608Y-92430187D01*
X136505200Y-92594103D01*
X136493959Y-92600593D01*
X136241767Y-92729090D01*
X136239274Y-92730325D01*
X136218737Y-92740215D01*
X136209374Y-92744259D01*
X135963086Y-92838800D01*
X135959603Y-92840077D01*
X135917002Y-92854984D01*
X135908141Y-92857718D01*
X135665232Y-92922806D01*
X135660729Y-92923923D01*
X135605319Y-92936569D01*
X135597126Y-92938150D01*
X135355371Y-92976440D01*
X135349856Y-92977187D01*
X135287574Y-92984204D01*
X135280182Y-92984814D01*
X135003244Y-92999330D01*
X134996753Y-92999500D01*
X100003246Y-92999500D01*
X99996757Y-92999330D01*
X99986676Y-92998801D01*
X99719816Y-92984814D01*
X99712424Y-92984204D01*
X99650142Y-92977187D01*
X99644627Y-92976440D01*
X99402872Y-92938150D01*
X99394679Y-92936569D01*
X99366044Y-92930033D01*
X99339245Y-92923917D01*
X99334766Y-92922806D01*
X99091857Y-92857718D01*
X99082996Y-92854984D01*
X99040395Y-92840077D01*
X99036912Y-92838800D01*
X98790624Y-92744259D01*
X98781260Y-92740215D01*
X98760742Y-92730334D01*
X98758249Y-92729099D01*
X98506035Y-92600590D01*
X98494795Y-92594100D01*
X98242391Y-92430187D01*
X98231890Y-92422558D01*
X97997989Y-92233149D01*
X97988344Y-92224464D01*
X97775535Y-92011655D01*
X97766850Y-92002010D01*
X97758861Y-91992145D01*
X97577441Y-91768109D01*
X97569819Y-91757619D01*
X97405885Y-91505183D01*
X97399408Y-91493963D01*
X97342840Y-91382942D01*
X97270897Y-91241744D01*
X97269673Y-91239274D01*
X97259777Y-91218724D01*
X97255745Y-91209389D01*
X97161195Y-90963079D01*
X97159921Y-90959603D01*
X97145014Y-90917002D01*
X97142284Y-90908155D01*
X97077179Y-90665181D01*
X97076100Y-90660830D01*
X97063423Y-90605289D01*
X97061848Y-90597126D01*
X97043677Y-90482395D01*
X97023555Y-90355353D01*
X97022811Y-90349856D01*
X97015794Y-90287574D01*
X97015184Y-90280181D01*
X97000670Y-90003243D01*
X97000500Y-89996753D01*
X97000500Y-89897648D01*
X98699500Y-89897648D01*
X98699500Y-90102351D01*
X98731522Y-90304534D01*
X98794781Y-90499223D01*
X98830407Y-90569141D01*
X98884542Y-90675387D01*
X98887715Y-90681613D01*
X99008028Y-90847213D01*
X99152786Y-90991971D01*
X99307749Y-91104556D01*
X99318390Y-91112287D01*
X99434607Y-91171503D01*
X99500776Y-91205218D01*
X99500778Y-91205218D01*
X99500781Y-91205220D01*
X99546288Y-91220006D01*
X99695465Y-91268477D01*
X99796557Y-91284488D01*
X99897648Y-91300500D01*
X99897649Y-91300500D01*
X100102351Y-91300500D01*
X100102352Y-91300500D01*
X100304534Y-91268477D01*
X100499219Y-91205220D01*
X100681610Y-91112287D01*
X100774590Y-91044732D01*
X100847213Y-90991971D01*
X100847215Y-90991968D01*
X100847219Y-90991966D01*
X100991966Y-90847219D01*
X100991968Y-90847215D01*
X100991971Y-90847213D01*
X101044732Y-90774590D01*
X101112287Y-90681610D01*
X101205220Y-90499219D01*
X101268477Y-90304534D01*
X101300500Y-90102352D01*
X101300500Y-89897648D01*
X101281474Y-89777523D01*
X109436394Y-89777523D01*
X109436394Y-91573258D01*
X109436395Y-91573264D01*
X109442802Y-91632871D01*
X109493096Y-91767716D01*
X109493100Y-91767723D01*
X109579346Y-91882932D01*
X109579349Y-91882935D01*
X109694558Y-91969181D01*
X109694565Y-91969185D01*
X109829411Y-92019479D01*
X109829410Y-92019479D01*
X109836338Y-92020223D01*
X109889021Y-92025888D01*
X111684766Y-92025887D01*
X111744377Y-92019479D01*
X111879225Y-91969184D01*
X111994440Y-91882934D01*
X112080690Y-91767719D01*
X112129704Y-91636304D01*
X112171575Y-91580372D01*
X112237039Y-91555954D01*
X112305312Y-91570805D01*
X112333567Y-91591957D01*
X112447107Y-91705497D01*
X112619073Y-91830436D01*
X112619075Y-91830437D01*
X112619078Y-91830439D01*
X112808482Y-91926945D01*
X113010651Y-91992634D01*
X113220607Y-92025888D01*
X113220608Y-92025888D01*
X113433180Y-92025888D01*
X113433181Y-92025888D01*
X113643137Y-91992634D01*
X113845306Y-91926945D01*
X114034710Y-91830439D01*
X114089466Y-91790657D01*
X114206680Y-91705497D01*
X114206682Y-91705494D01*
X114206686Y-91705492D01*
X114356998Y-91555180D01*
X114357000Y-91555176D01*
X114357003Y-91555174D01*
X114481942Y-91383208D01*
X114481941Y-91383208D01*
X114481945Y-91383204D01*
X114486408Y-91374442D01*
X114534382Y-91323647D01*
X114602202Y-91306851D01*
X114668338Y-91329387D01*
X114707380Y-91374444D01*
X114711845Y-91383208D01*
X114836784Y-91555174D01*
X114987107Y-91705497D01*
X115159073Y-91830436D01*
X115159075Y-91830437D01*
X115159078Y-91830439D01*
X115348482Y-91926945D01*
X115550651Y-91992634D01*
X115760607Y-92025888D01*
X115760608Y-92025888D01*
X115973180Y-92025888D01*
X115973181Y-92025888D01*
X116183137Y-91992634D01*
X116385306Y-91926945D01*
X116574710Y-91830439D01*
X116629466Y-91790657D01*
X116746680Y-91705497D01*
X116746682Y-91705494D01*
X116746686Y-91705492D01*
X116896998Y-91555180D01*
X116897000Y-91555176D01*
X116897003Y-91555174D01*
X116982784Y-91437105D01*
X117021945Y-91383204D01*
X117026687Y-91373896D01*
X117074657Y-91323099D01*
X117142477Y-91306299D01*
X117208613Y-91328833D01*
X117247657Y-91373888D01*
X117252267Y-91382935D01*
X117291622Y-91437104D01*
X117923931Y-90804796D01*
X117940969Y-90868381D01*
X118006795Y-90982395D01*
X118099887Y-91075487D01*
X118213901Y-91141313D01*
X118277484Y-91158350D01*
X117645176Y-91790657D01*
X117645176Y-91790658D01*
X117699343Y-91830012D01*
X117888676Y-91926483D01*
X118090764Y-91992145D01*
X118300648Y-92025388D01*
X118513140Y-92025388D01*
X118723021Y-91992145D01*
X118723024Y-91992145D01*
X118925111Y-91926483D01*
X119114448Y-91830010D01*
X119168610Y-91790658D01*
X119168611Y-91790658D01*
X118536302Y-91158350D01*
X118599887Y-91141313D01*
X118713901Y-91075487D01*
X118806993Y-90982395D01*
X118872819Y-90868381D01*
X118889856Y-90804796D01*
X119522164Y-91437105D01*
X119522164Y-91437104D01*
X119561516Y-91382942D01*
X119657989Y-91193605D01*
X119723651Y-90991518D01*
X119723651Y-90991515D01*
X119756894Y-90781634D01*
X119756894Y-90569141D01*
X119723651Y-90359260D01*
X119723651Y-90359257D01*
X119657989Y-90157170D01*
X119561517Y-89967836D01*
X119559939Y-89965663D01*
X119559937Y-89965661D01*
X119522163Y-89913670D01*
X118889856Y-90545978D01*
X118872819Y-90482395D01*
X118806993Y-90368381D01*
X118713901Y-90275289D01*
X118599887Y-90209463D01*
X118536303Y-90192425D01*
X118831079Y-89897648D01*
X133699500Y-89897648D01*
X133699500Y-90102351D01*
X133731522Y-90304534D01*
X133794781Y-90499223D01*
X133830407Y-90569141D01*
X133884542Y-90675387D01*
X133887715Y-90681613D01*
X134008028Y-90847213D01*
X134152786Y-90991971D01*
X134307749Y-91104556D01*
X134318390Y-91112287D01*
X134434607Y-91171503D01*
X134500776Y-91205218D01*
X134500778Y-91205218D01*
X134500781Y-91205220D01*
X134546288Y-91220006D01*
X134695465Y-91268477D01*
X134796557Y-91284488D01*
X134897648Y-91300500D01*
X134897649Y-91300500D01*
X135102351Y-91300500D01*
X135102352Y-91300500D01*
X135304534Y-91268477D01*
X135499219Y-91205220D01*
X135681610Y-91112287D01*
X135774590Y-91044732D01*
X135847213Y-90991971D01*
X135847215Y-90991968D01*
X135847219Y-90991966D01*
X135991966Y-90847219D01*
X135991968Y-90847215D01*
X135991971Y-90847213D01*
X136044732Y-90774590D01*
X136112287Y-90681610D01*
X136205220Y-90499219D01*
X136268477Y-90304534D01*
X136300500Y-90102352D01*
X136300500Y-89897648D01*
X136281473Y-89777516D01*
X136268477Y-89695465D01*
X136211714Y-89520768D01*
X136205220Y-89500781D01*
X136205218Y-89500778D01*
X136205218Y-89500776D01*
X136132790Y-89358630D01*
X136112287Y-89318390D01*
X136104556Y-89307749D01*
X135991971Y-89152786D01*
X135847213Y-89008028D01*
X135681613Y-88887715D01*
X135681612Y-88887714D01*
X135681610Y-88887713D01*
X135624653Y-88858691D01*
X135499223Y-88794781D01*
X135304534Y-88731522D01*
X135129995Y-88703878D01*
X135102352Y-88699500D01*
X134897648Y-88699500D01*
X134873329Y-88703351D01*
X134695465Y-88731522D01*
X134500776Y-88794781D01*
X134318386Y-88887715D01*
X134152786Y-89008028D01*
X134008028Y-89152786D01*
X133887715Y-89318386D01*
X133794781Y-89500776D01*
X133731522Y-89695465D01*
X133699500Y-89897648D01*
X118831079Y-89897648D01*
X119168610Y-89560116D01*
X119114444Y-89520763D01*
X118925111Y-89424292D01*
X118723023Y-89358630D01*
X118513140Y-89325388D01*
X118300648Y-89325388D01*
X118090766Y-89358630D01*
X118090763Y-89358630D01*
X117888676Y-89424292D01*
X117699333Y-89520768D01*
X117645176Y-89560115D01*
X117645176Y-89560116D01*
X118277485Y-90192425D01*
X118213901Y-90209463D01*
X118099887Y-90275289D01*
X118006795Y-90368381D01*
X117940969Y-90482395D01*
X117923931Y-90545979D01*
X117291622Y-89913670D01*
X117291621Y-89913670D01*
X117252274Y-89967828D01*
X117252270Y-89967834D01*
X117247654Y-89976893D01*
X117199675Y-90027685D01*
X117131853Y-90044475D01*
X117065720Y-90021931D01*
X117026688Y-89976881D01*
X117021945Y-89967572D01*
X117021943Y-89967569D01*
X117021942Y-89967567D01*
X116897003Y-89795601D01*
X116746680Y-89645278D01*
X116574714Y-89520339D01*
X116385308Y-89423832D01*
X116385307Y-89423831D01*
X116385306Y-89423831D01*
X116183137Y-89358142D01*
X116183135Y-89358141D01*
X116183134Y-89358141D01*
X116021851Y-89332596D01*
X115973181Y-89324888D01*
X115760607Y-89324888D01*
X115711936Y-89332596D01*
X115550654Y-89358141D01*
X115348479Y-89423832D01*
X115159073Y-89520339D01*
X114987107Y-89645278D01*
X114836784Y-89795601D01*
X114711843Y-89967570D01*
X114707378Y-89976334D01*
X114659403Y-90027130D01*
X114591582Y-90043924D01*
X114525447Y-90021386D01*
X114486410Y-89976334D01*
X114481944Y-89967570D01*
X114357003Y-89795601D01*
X114206680Y-89645278D01*
X114034714Y-89520339D01*
X113845308Y-89423832D01*
X113845307Y-89423831D01*
X113845306Y-89423831D01*
X113643137Y-89358142D01*
X113643135Y-89358141D01*
X113643134Y-89358141D01*
X113481851Y-89332596D01*
X113433181Y-89324888D01*
X113220607Y-89324888D01*
X113171936Y-89332596D01*
X113010654Y-89358141D01*
X112808479Y-89423832D01*
X112619073Y-89520339D01*
X112447109Y-89645277D01*
X112333567Y-89758819D01*
X112272244Y-89792303D01*
X112202552Y-89787319D01*
X112146619Y-89745447D01*
X112129704Y-89714470D01*
X112080691Y-89583059D01*
X112080687Y-89583052D01*
X111994441Y-89467843D01*
X111994438Y-89467840D01*
X111879229Y-89381594D01*
X111879222Y-89381590D01*
X111744376Y-89331296D01*
X111744377Y-89331296D01*
X111684777Y-89324889D01*
X111684775Y-89324888D01*
X111684767Y-89324888D01*
X111684758Y-89324888D01*
X109889023Y-89324888D01*
X109889017Y-89324889D01*
X109829410Y-89331296D01*
X109694565Y-89381590D01*
X109694558Y-89381594D01*
X109579349Y-89467840D01*
X109579346Y-89467843D01*
X109493100Y-89583052D01*
X109493096Y-89583059D01*
X109442802Y-89717905D01*
X109436395Y-89777504D01*
X109436394Y-89777523D01*
X101281474Y-89777523D01*
X101281473Y-89777516D01*
X101268477Y-89695465D01*
X101211714Y-89520768D01*
X101205220Y-89500781D01*
X101205218Y-89500778D01*
X101205218Y-89500776D01*
X101132790Y-89358630D01*
X101112287Y-89318390D01*
X101104556Y-89307749D01*
X100991971Y-89152786D01*
X100847213Y-89008028D01*
X100681613Y-88887715D01*
X100681612Y-88887714D01*
X100681610Y-88887713D01*
X100624653Y-88858691D01*
X100499223Y-88794781D01*
X100304534Y-88731522D01*
X100129995Y-88703878D01*
X100102352Y-88699500D01*
X99897648Y-88699500D01*
X99873329Y-88703351D01*
X99695465Y-88731522D01*
X99500776Y-88794781D01*
X99318386Y-88887715D01*
X99152786Y-89008028D01*
X99008028Y-89152786D01*
X98887715Y-89318386D01*
X98794781Y-89500776D01*
X98731522Y-89695465D01*
X98699500Y-89897648D01*
X97000500Y-89897648D01*
X97000500Y-88171153D01*
X111876394Y-88171153D01*
X111876394Y-88328846D01*
X111907155Y-88483489D01*
X111907158Y-88483501D01*
X111967496Y-88629172D01*
X111967503Y-88629185D01*
X112055104Y-88760288D01*
X112055107Y-88760292D01*
X112166601Y-88871786D01*
X112166605Y-88871789D01*
X112297708Y-88959390D01*
X112297721Y-88959397D01*
X112415143Y-89008034D01*
X112443397Y-89019737D01*
X112598047Y-89050499D01*
X112598050Y-89050500D01*
X112598052Y-89050500D01*
X112755738Y-89050500D01*
X112755739Y-89050499D01*
X112832046Y-89035320D01*
X112910382Y-89019739D01*
X112910383Y-89019738D01*
X112910391Y-89019737D01*
X112934049Y-89009937D01*
X112981498Y-89000500D01*
X113672290Y-89000500D01*
X113719738Y-89009937D01*
X113743397Y-89019737D01*
X113743402Y-89019738D01*
X113743405Y-89019739D01*
X113898047Y-89050499D01*
X113898050Y-89050500D01*
X113898052Y-89050500D01*
X114055738Y-89050500D01*
X114055739Y-89050499D01*
X114210391Y-89019737D01*
X114356073Y-88959394D01*
X114487183Y-88871789D01*
X114598683Y-88760289D01*
X114686288Y-88629179D01*
X114746631Y-88483497D01*
X114777394Y-88328842D01*
X114777394Y-88171158D01*
X114777394Y-88171155D01*
X114777393Y-88171153D01*
X114746632Y-88016510D01*
X114746631Y-88016503D01*
X114746629Y-88016498D01*
X114686291Y-87870827D01*
X114686284Y-87870814D01*
X114598683Y-87739711D01*
X114598680Y-87739707D01*
X114487186Y-87628213D01*
X114487182Y-87628210D01*
X114356079Y-87540609D01*
X114356066Y-87540602D01*
X114210395Y-87480264D01*
X114210383Y-87480261D01*
X114055739Y-87449500D01*
X114055736Y-87449500D01*
X113898052Y-87449500D01*
X113898049Y-87449500D01*
X113743405Y-87480260D01*
X113743400Y-87480262D01*
X113743398Y-87480262D01*
X113743397Y-87480263D01*
X113719738Y-87490062D01*
X113672290Y-87499500D01*
X112981498Y-87499500D01*
X112934049Y-87490062D01*
X112910391Y-87480263D01*
X112910387Y-87480262D01*
X112910382Y-87480260D01*
X112755739Y-87449500D01*
X112755736Y-87449500D01*
X112598052Y-87449500D01*
X112598049Y-87449500D01*
X112443404Y-87480261D01*
X112443392Y-87480264D01*
X112297721Y-87540602D01*
X112297708Y-87540609D01*
X112166605Y-87628210D01*
X112166601Y-87628213D01*
X112055107Y-87739707D01*
X112055104Y-87739711D01*
X111967503Y-87870814D01*
X111967496Y-87870827D01*
X111907158Y-88016498D01*
X111907155Y-88016510D01*
X111876394Y-88171153D01*
X97000500Y-88171153D01*
X97000500Y-85666228D01*
X114899500Y-85666228D01*
X114899500Y-85833771D01*
X114932182Y-85998074D01*
X114932184Y-85998082D01*
X114996295Y-86152860D01*
X115089373Y-86292162D01*
X115207837Y-86410626D01*
X115300494Y-86472537D01*
X115347137Y-86503703D01*
X115501918Y-86567816D01*
X115666228Y-86600499D01*
X115666232Y-86600500D01*
X115666233Y-86600500D01*
X115833768Y-86600500D01*
X115833769Y-86600499D01*
X115998082Y-86567816D01*
X116137808Y-86509938D01*
X116185261Y-86500500D01*
X116954080Y-86500500D01*
X117001532Y-86509938D01*
X117141259Y-86567816D01*
X117305569Y-86600499D01*
X117305573Y-86600500D01*
X117305574Y-86600500D01*
X117473109Y-86600500D01*
X117473110Y-86600499D01*
X117637423Y-86567816D01*
X117792204Y-86503703D01*
X117931503Y-86410626D01*
X118049967Y-86292162D01*
X118143044Y-86152863D01*
X118207157Y-85998082D01*
X118239841Y-85833767D01*
X118239841Y-85666233D01*
X118207157Y-85501918D01*
X118143044Y-85347137D01*
X118111878Y-85300494D01*
X118049967Y-85207837D01*
X117931503Y-85089373D01*
X117792201Y-84996295D01*
X117637423Y-84932184D01*
X117637415Y-84932182D01*
X117473112Y-84899500D01*
X117473108Y-84899500D01*
X117305574Y-84899500D01*
X117305569Y-84899500D01*
X117141266Y-84932182D01*
X117141258Y-84932184D01*
X117001533Y-84990061D01*
X116954080Y-84999500D01*
X116185261Y-84999500D01*
X116137808Y-84990061D01*
X115998082Y-84932184D01*
X115998074Y-84932182D01*
X115833771Y-84899500D01*
X115833767Y-84899500D01*
X115666233Y-84899500D01*
X115666228Y-84899500D01*
X115501925Y-84932182D01*
X115501917Y-84932184D01*
X115347139Y-84996295D01*
X115207837Y-85089373D01*
X115089373Y-85207837D01*
X114996295Y-85347139D01*
X114932184Y-85501917D01*
X114932182Y-85501925D01*
X114899500Y-85666228D01*
X97000500Y-85666228D01*
X97000500Y-80995000D01*
X133447674Y-80995000D01*
X133447674Y-81162543D01*
X133480356Y-81326846D01*
X133480358Y-81326854D01*
X133538235Y-81466580D01*
X133547674Y-81514033D01*
X133547674Y-82622092D01*
X133547674Y-82622094D01*
X133547673Y-82622094D01*
X133576514Y-82767081D01*
X133576517Y-82767091D01*
X133633086Y-82903662D01*
X133633093Y-82903675D01*
X133641481Y-82916227D01*
X133641483Y-82916233D01*
X133641484Y-82916233D01*
X133715220Y-83026588D01*
X133715221Y-83026589D01*
X133715222Y-83026590D01*
X133911541Y-83222908D01*
X133938419Y-83263134D01*
X133996295Y-83402860D01*
X134089373Y-83542162D01*
X134207837Y-83660626D01*
X134300494Y-83722537D01*
X134347137Y-83753703D01*
X134501918Y-83817816D01*
X134666228Y-83850499D01*
X134666232Y-83850500D01*
X134666233Y-83850500D01*
X134833768Y-83850500D01*
X134833769Y-83850499D01*
X134998082Y-83817816D01*
X135152863Y-83753703D01*
X135292162Y-83660626D01*
X135410626Y-83542162D01*
X135503703Y-83402863D01*
X135567816Y-83248082D01*
X135600500Y-83083767D01*
X135600500Y-82916233D01*
X135600500Y-82916230D01*
X135567817Y-82751925D01*
X135567816Y-82751918D01*
X135503703Y-82597137D01*
X135472537Y-82550494D01*
X135410626Y-82457837D01*
X135292162Y-82339373D01*
X135152860Y-82246295D01*
X135125221Y-82234847D01*
X135070818Y-82191006D01*
X135048753Y-82124711D01*
X135048674Y-82120286D01*
X135048674Y-81514033D01*
X135058113Y-81466580D01*
X135115990Y-81326854D01*
X135148674Y-81162539D01*
X135148674Y-81070106D01*
X135168359Y-81003067D01*
X135221163Y-80957312D01*
X135290321Y-80947368D01*
X135310994Y-80952176D01*
X135323102Y-80956110D01*
X135323105Y-80956110D01*
X135323110Y-80956112D01*
X135400549Y-80968376D01*
X135490308Y-80982594D01*
X135490313Y-80982594D01*
X136309606Y-80982594D01*
X136476804Y-80956112D01*
X136503715Y-80947368D01*
X136637806Y-80903799D01*
X136788642Y-80826944D01*
X136925598Y-80727440D01*
X137045303Y-80607735D01*
X137144807Y-80470779D01*
X137221662Y-80319943D01*
X137273975Y-80158941D01*
X137274672Y-80154538D01*
X137300457Y-79991743D01*
X137300457Y-79822444D01*
X137273975Y-79655246D01*
X137221660Y-79494240D01*
X137193777Y-79439519D01*
X137144807Y-79343409D01*
X137063543Y-79231558D01*
X137045308Y-79206459D01*
X137045304Y-79206454D01*
X136925596Y-79086746D01*
X136925591Y-79086742D01*
X136788645Y-78987246D01*
X136788644Y-78987245D01*
X136788642Y-78987244D01*
X136732684Y-78958732D01*
X136637810Y-78910390D01*
X136476804Y-78858075D01*
X136309606Y-78831594D01*
X136309601Y-78831594D01*
X135490313Y-78831594D01*
X135490308Y-78831594D01*
X135323109Y-78858075D01*
X135162103Y-78910390D01*
X135011268Y-78987246D01*
X134874322Y-79086742D01*
X134874317Y-79086746D01*
X134754609Y-79206454D01*
X134754605Y-79206459D01*
X134655109Y-79343405D01*
X134578253Y-79494240D01*
X134525938Y-79655246D01*
X134499457Y-79822444D01*
X134499457Y-79991743D01*
X134514266Y-80085244D01*
X134505311Y-80154538D01*
X134460315Y-80207990D01*
X134393564Y-80228629D01*
X134385044Y-80228272D01*
X134381941Y-80228272D01*
X134214407Y-80228272D01*
X134214402Y-80228272D01*
X134050099Y-80260954D01*
X134050091Y-80260956D01*
X133895313Y-80325067D01*
X133756011Y-80418145D01*
X133637547Y-80536609D01*
X133544469Y-80675911D01*
X133480358Y-80830689D01*
X133480356Y-80830697D01*
X133447674Y-80995000D01*
X97000500Y-80995000D01*
X97000500Y-79660645D01*
X130599457Y-79660645D01*
X130599457Y-79853542D01*
X130629632Y-80044063D01*
X130629633Y-80044066D01*
X130689242Y-80227523D01*
X130776816Y-80399396D01*
X130890198Y-80555453D01*
X131026598Y-80691853D01*
X131182655Y-80805235D01*
X131354528Y-80892809D01*
X131537985Y-80952418D01*
X131728508Y-80982594D01*
X131728509Y-80982594D01*
X132471405Y-80982594D01*
X132471406Y-80982594D01*
X132661929Y-80952418D01*
X132845386Y-80892809D01*
X132845390Y-80892807D01*
X132873609Y-80878429D01*
X132873610Y-80878428D01*
X133017259Y-80805235D01*
X133173316Y-80691853D01*
X133309716Y-80555453D01*
X133423098Y-80399396D01*
X133510672Y-80227523D01*
X133570281Y-80044066D01*
X133600457Y-79853543D01*
X133600457Y-79660645D01*
X133570281Y-79470122D01*
X133563017Y-79447769D01*
X133561023Y-79377929D01*
X133597103Y-79318096D01*
X133612054Y-79306352D01*
X133723992Y-79231558D01*
X133849421Y-79106129D01*
X133947970Y-78958641D01*
X134015851Y-78794760D01*
X134050457Y-78620785D01*
X134050457Y-78443403D01*
X134050457Y-78443400D01*
X134050456Y-78443398D01*
X134015853Y-78269435D01*
X134015850Y-78269426D01*
X133947973Y-78105553D01*
X133947966Y-78105540D01*
X133849421Y-77958059D01*
X133849418Y-77958055D01*
X133723995Y-77832632D01*
X133723991Y-77832629D01*
X133576510Y-77734084D01*
X133576497Y-77734077D01*
X133412624Y-77666200D01*
X133412615Y-77666197D01*
X133238651Y-77631594D01*
X133238648Y-77631594D01*
X133061266Y-77631594D01*
X133061263Y-77631594D01*
X132887298Y-77666197D01*
X132887289Y-77666200D01*
X132723416Y-77734077D01*
X132723403Y-77734084D01*
X132575922Y-77832629D01*
X132575918Y-77832632D01*
X132450495Y-77958055D01*
X132450492Y-77958059D01*
X132351947Y-78105540D01*
X132351940Y-78105553D01*
X132284063Y-78269426D01*
X132284061Y-78269434D01*
X132251767Y-78431786D01*
X132219382Y-78493697D01*
X132158666Y-78528271D01*
X132130150Y-78531594D01*
X131728508Y-78531594D01*
X131692654Y-78537272D01*
X131537987Y-78561769D01*
X131354525Y-78621380D01*
X131182654Y-78708953D01*
X131093618Y-78773641D01*
X131026598Y-78822335D01*
X131026596Y-78822337D01*
X131026595Y-78822337D01*
X130890200Y-78958732D01*
X130890200Y-78958733D01*
X130890198Y-78958735D01*
X130869485Y-78987244D01*
X130776816Y-79114791D01*
X130689243Y-79286662D01*
X130629632Y-79470124D01*
X130599457Y-79660645D01*
X97000500Y-79660645D01*
X97000500Y-74066797D01*
X98427984Y-74066797D01*
X98454903Y-74202124D01*
X98454906Y-74202134D01*
X98507706Y-74329606D01*
X98507713Y-74329619D01*
X98584370Y-74444343D01*
X98584373Y-74444347D01*
X98681939Y-74541913D01*
X98681943Y-74541916D01*
X98796667Y-74618573D01*
X98796680Y-74618580D01*
X98924152Y-74671380D01*
X98924157Y-74671382D01*
X98924161Y-74671382D01*
X98924162Y-74671383D01*
X99059489Y-74698302D01*
X99059492Y-74698302D01*
X99197480Y-74698302D01*
X99288526Y-74680191D01*
X99332813Y-74671382D01*
X99460296Y-74618577D01*
X99575027Y-74541916D01*
X99672599Y-74444344D01*
X99749260Y-74329613D01*
X99802065Y-74202130D01*
X99810874Y-74157843D01*
X99828985Y-74066797D01*
X99828985Y-73928806D01*
X99802066Y-73793479D01*
X99802065Y-73793478D01*
X99802065Y-73793474D01*
X99802063Y-73793469D01*
X99749263Y-73665997D01*
X99749256Y-73665984D01*
X99672599Y-73551260D01*
X99672596Y-73551256D01*
X99575030Y-73453690D01*
X99575026Y-73453687D01*
X99460302Y-73377030D01*
X99460289Y-73377023D01*
X99332817Y-73324223D01*
X99332807Y-73324220D01*
X99197480Y-73297302D01*
X99197478Y-73297302D01*
X99059492Y-73297302D01*
X99059490Y-73297302D01*
X98924162Y-73324220D01*
X98924152Y-73324223D01*
X98796680Y-73377023D01*
X98796667Y-73377030D01*
X98681943Y-73453687D01*
X98681939Y-73453690D01*
X98584373Y-73551256D01*
X98584370Y-73551260D01*
X98507713Y-73665984D01*
X98507706Y-73665997D01*
X98454906Y-73793469D01*
X98454903Y-73793479D01*
X98427985Y-73928806D01*
X98427985Y-73928809D01*
X98427985Y-74066795D01*
X98427985Y-74066797D01*
X98427984Y-74066797D01*
X97000500Y-74066797D01*
X97000500Y-72210645D01*
X130599457Y-72210645D01*
X130599457Y-72403542D01*
X130629632Y-72594063D01*
X130629633Y-72594066D01*
X130689242Y-72777523D01*
X130776816Y-72949396D01*
X130890198Y-73105453D01*
X131026598Y-73241853D01*
X131182655Y-73355235D01*
X131354528Y-73442809D01*
X131537985Y-73502418D01*
X131728508Y-73532594D01*
X132130150Y-73532594D01*
X132197189Y-73552279D01*
X132242944Y-73605083D01*
X132251767Y-73632402D01*
X132284061Y-73794753D01*
X132284063Y-73794761D01*
X132351940Y-73958634D01*
X132351947Y-73958647D01*
X132450492Y-74106128D01*
X132450495Y-74106132D01*
X132575918Y-74231555D01*
X132575922Y-74231558D01*
X132723403Y-74330103D01*
X132723416Y-74330110D01*
X132846320Y-74381017D01*
X132887291Y-74397988D01*
X132887293Y-74397988D01*
X132887298Y-74397990D01*
X133061261Y-74432593D01*
X133061264Y-74432594D01*
X133061266Y-74432594D01*
X133238650Y-74432594D01*
X133238651Y-74432593D01*
X133296639Y-74421058D01*
X133412615Y-74397990D01*
X133412618Y-74397988D01*
X133412623Y-74397988D01*
X133576504Y-74330107D01*
X133723992Y-74231558D01*
X133849421Y-74106129D01*
X133947970Y-73958641D01*
X134015851Y-73794760D01*
X134015851Y-73794755D01*
X134015853Y-73794752D01*
X134050456Y-73620789D01*
X134050457Y-73620787D01*
X134050457Y-73443400D01*
X134050456Y-73443398D01*
X134015853Y-73269435D01*
X134015850Y-73269426D01*
X133947973Y-73105553D01*
X133947966Y-73105540D01*
X133849421Y-72958059D01*
X133849418Y-72958055D01*
X133723995Y-72832632D01*
X133723991Y-72832629D01*
X133612058Y-72757837D01*
X133567253Y-72704224D01*
X133558546Y-72634899D01*
X133563014Y-72616428D01*
X133570281Y-72594066D01*
X133600457Y-72403543D01*
X133600457Y-72210645D01*
X133578568Y-72072444D01*
X134499457Y-72072444D01*
X134499457Y-72241743D01*
X134525938Y-72408941D01*
X134578253Y-72569947D01*
X134631107Y-72673676D01*
X134652264Y-72715200D01*
X134655109Y-72720782D01*
X134754605Y-72857728D01*
X134754609Y-72857733D01*
X134874317Y-72977441D01*
X134874322Y-72977445D01*
X134993774Y-73064231D01*
X135011272Y-73076944D01*
X135107382Y-73125914D01*
X135162103Y-73153797D01*
X135162105Y-73153797D01*
X135162108Y-73153799D01*
X135248407Y-73181839D01*
X135323109Y-73206112D01*
X135490308Y-73232594D01*
X135490313Y-73232594D01*
X136309606Y-73232594D01*
X136476804Y-73206112D01*
X136637806Y-73153799D01*
X136788642Y-73076944D01*
X136925598Y-72977440D01*
X137045303Y-72857735D01*
X137144807Y-72720779D01*
X137221662Y-72569943D01*
X137273975Y-72408941D01*
X137274830Y-72403542D01*
X137300457Y-72241743D01*
X137300457Y-72072444D01*
X137273975Y-71905246D01*
X137221660Y-71744240D01*
X137184535Y-71671380D01*
X137144807Y-71593409D01*
X137083286Y-71508732D01*
X137045308Y-71456459D01*
X137045304Y-71456454D01*
X136925596Y-71336746D01*
X136925591Y-71336742D01*
X136788645Y-71237246D01*
X136788644Y-71237245D01*
X136788642Y-71237244D01*
X136719735Y-71202134D01*
X136637810Y-71160390D01*
X136476804Y-71108075D01*
X136309606Y-71081594D01*
X136309601Y-71081594D01*
X135490313Y-71081594D01*
X135490308Y-71081594D01*
X135323109Y-71108075D01*
X135162103Y-71160390D01*
X135011268Y-71237246D01*
X134874322Y-71336742D01*
X134874317Y-71336746D01*
X134754609Y-71456454D01*
X134754605Y-71456459D01*
X134655109Y-71593405D01*
X134578253Y-71744240D01*
X134525938Y-71905246D01*
X134499457Y-72072444D01*
X133578568Y-72072444D01*
X133570281Y-72020122D01*
X133510672Y-71836665D01*
X133423098Y-71664792D01*
X133309716Y-71508735D01*
X133173316Y-71372335D01*
X133017259Y-71258953D01*
X132845386Y-71171379D01*
X132661929Y-71111770D01*
X132661927Y-71111769D01*
X132661926Y-71111769D01*
X132515571Y-71088589D01*
X132471406Y-71081594D01*
X131728508Y-71081594D01*
X131692654Y-71087272D01*
X131537987Y-71111769D01*
X131354525Y-71171380D01*
X131182654Y-71258953D01*
X131093618Y-71323641D01*
X131026598Y-71372335D01*
X131026596Y-71372337D01*
X131026595Y-71372337D01*
X130890200Y-71508732D01*
X130890200Y-71508733D01*
X130890198Y-71508735D01*
X130866093Y-71541913D01*
X130776816Y-71664791D01*
X130689243Y-71836662D01*
X130629632Y-72020124D01*
X130599457Y-72210645D01*
X97000500Y-72210645D01*
X97000500Y-71066797D01*
X98427984Y-71066797D01*
X98454903Y-71202124D01*
X98454906Y-71202134D01*
X98507706Y-71329606D01*
X98507713Y-71329619D01*
X98584370Y-71444343D01*
X98584373Y-71444347D01*
X98681939Y-71541913D01*
X98681943Y-71541916D01*
X98796667Y-71618573D01*
X98796680Y-71618580D01*
X98908245Y-71664791D01*
X98924157Y-71671382D01*
X98924161Y-71671382D01*
X98924162Y-71671383D01*
X99059489Y-71698302D01*
X99059492Y-71698302D01*
X99197480Y-71698302D01*
X99288526Y-71680191D01*
X99332813Y-71671382D01*
X99460296Y-71618577D01*
X99575027Y-71541916D01*
X99672599Y-71444344D01*
X99749260Y-71329613D01*
X99802065Y-71202130D01*
X99820774Y-71108075D01*
X99828985Y-71066797D01*
X99828985Y-70928806D01*
X99802066Y-70793479D01*
X99802065Y-70793478D01*
X99802065Y-70793474D01*
X99802063Y-70793469D01*
X99749263Y-70665997D01*
X99749256Y-70665984D01*
X99672599Y-70551260D01*
X99672596Y-70551256D01*
X99575030Y-70453690D01*
X99575026Y-70453687D01*
X99460302Y-70377030D01*
X99460289Y-70377023D01*
X99332817Y-70324223D01*
X99332807Y-70324220D01*
X99197480Y-70297302D01*
X99197478Y-70297302D01*
X99059492Y-70297302D01*
X99059490Y-70297302D01*
X98924162Y-70324220D01*
X98924152Y-70324223D01*
X98796680Y-70377023D01*
X98796667Y-70377030D01*
X98681943Y-70453687D01*
X98681939Y-70453690D01*
X98584373Y-70551256D01*
X98584370Y-70551260D01*
X98507713Y-70665984D01*
X98507706Y-70665997D01*
X98454906Y-70793469D01*
X98454903Y-70793479D01*
X98427985Y-70928806D01*
X98427985Y-70928809D01*
X98427985Y-71066795D01*
X98427985Y-71066797D01*
X98427984Y-71066797D01*
X97000500Y-71066797D01*
X97000500Y-65003246D01*
X97000670Y-64996756D01*
X97005864Y-64897648D01*
X98699500Y-64897648D01*
X98699500Y-65102352D01*
X98701546Y-65115269D01*
X98731522Y-65304534D01*
X98794781Y-65499223D01*
X98887715Y-65681613D01*
X99008028Y-65847213D01*
X99152786Y-65991971D01*
X99307749Y-66104556D01*
X99318390Y-66112287D01*
X99434607Y-66171503D01*
X99500776Y-66205218D01*
X99500778Y-66205218D01*
X99500781Y-66205220D01*
X99605137Y-66239127D01*
X99695465Y-66268477D01*
X99796557Y-66284488D01*
X99897648Y-66300500D01*
X99897649Y-66300500D01*
X100102351Y-66300500D01*
X100102352Y-66300500D01*
X100304534Y-66268477D01*
X100499219Y-66205220D01*
X100681610Y-66112287D01*
X100774590Y-66044732D01*
X100847213Y-65991971D01*
X100847215Y-65991968D01*
X100847219Y-65991966D01*
X100991966Y-65847219D01*
X100991968Y-65847215D01*
X100991971Y-65847213D01*
X101044732Y-65774590D01*
X101112287Y-65681610D01*
X101205220Y-65499219D01*
X101268477Y-65304534D01*
X101300500Y-65102352D01*
X101300500Y-64897648D01*
X101268477Y-64695466D01*
X101261614Y-64674345D01*
X101211756Y-64520898D01*
X101205220Y-64500781D01*
X101205218Y-64500778D01*
X101205218Y-64500776D01*
X101153920Y-64400099D01*
X101112287Y-64318390D01*
X101104017Y-64307007D01*
X100991971Y-64152786D01*
X100847217Y-64008032D01*
X100847212Y-64008028D01*
X100821296Y-63989199D01*
X100689924Y-63893753D01*
X105840000Y-63893753D01*
X105840000Y-64106246D01*
X105873242Y-64316127D01*
X105873242Y-64316130D01*
X105938904Y-64518217D01*
X106035375Y-64707550D01*
X106074728Y-64761716D01*
X106707037Y-64129408D01*
X106724075Y-64192993D01*
X106789901Y-64307007D01*
X106882993Y-64400099D01*
X106997007Y-64465925D01*
X107060590Y-64482962D01*
X106428282Y-65115269D01*
X106428282Y-65115270D01*
X106482449Y-65154624D01*
X106671782Y-65251095D01*
X106873870Y-65316757D01*
X107083754Y-65350000D01*
X107296246Y-65350000D01*
X107506127Y-65316757D01*
X107506130Y-65316757D01*
X107708217Y-65251095D01*
X107897554Y-65154622D01*
X107951716Y-65115270D01*
X107951717Y-65115270D01*
X107319408Y-64482962D01*
X107382993Y-64465925D01*
X107497007Y-64400099D01*
X107590099Y-64307007D01*
X107655925Y-64192993D01*
X107672962Y-64129409D01*
X108305270Y-64761717D01*
X108305270Y-64761716D01*
X108344622Y-64707555D01*
X108349232Y-64698507D01*
X108397205Y-64647709D01*
X108465025Y-64630912D01*
X108531161Y-64653447D01*
X108570204Y-64698504D01*
X108574949Y-64707817D01*
X108699890Y-64879786D01*
X108850213Y-65030109D01*
X109022179Y-65155048D01*
X109022181Y-65155049D01*
X109022184Y-65155051D01*
X109211588Y-65251557D01*
X109413757Y-65317246D01*
X109623713Y-65350500D01*
X109623714Y-65350500D01*
X109836286Y-65350500D01*
X109836287Y-65350500D01*
X110046243Y-65317246D01*
X110248412Y-65251557D01*
X110437816Y-65155051D01*
X110495374Y-65113233D01*
X110609786Y-65030109D01*
X110609788Y-65030106D01*
X110609792Y-65030104D01*
X110760104Y-64879792D01*
X110760106Y-64879788D01*
X110760109Y-64879786D01*
X110885048Y-64707820D01*
X110885050Y-64707817D01*
X110885051Y-64707816D01*
X110889514Y-64699054D01*
X110937488Y-64648259D01*
X111005308Y-64631463D01*
X111071444Y-64653999D01*
X111110486Y-64699056D01*
X111114951Y-64707820D01*
X111239890Y-64879786D01*
X111390213Y-65030109D01*
X111562179Y-65155048D01*
X111562181Y-65155049D01*
X111562184Y-65155051D01*
X111751588Y-65251557D01*
X111953757Y-65317246D01*
X112163713Y-65350500D01*
X112163714Y-65350500D01*
X112376286Y-65350500D01*
X112376287Y-65350500D01*
X112586243Y-65317246D01*
X112788412Y-65251557D01*
X112977816Y-65155051D01*
X113121028Y-65051002D01*
X113149784Y-65030110D01*
X113149784Y-65030109D01*
X113149792Y-65030104D01*
X113263329Y-64916566D01*
X113324648Y-64883084D01*
X113394340Y-64888068D01*
X113450274Y-64929939D01*
X113467189Y-64960917D01*
X113516202Y-65092328D01*
X113516206Y-65092335D01*
X113602452Y-65207544D01*
X113602455Y-65207547D01*
X113717664Y-65293793D01*
X113717671Y-65293797D01*
X113852517Y-65344091D01*
X113852516Y-65344091D01*
X113859444Y-65344835D01*
X113912127Y-65350500D01*
X115707872Y-65350499D01*
X115767483Y-65344091D01*
X115902331Y-65293796D01*
X116017546Y-65207546D01*
X116103796Y-65092331D01*
X116106989Y-65083767D01*
X116121235Y-65045576D01*
X116145016Y-64981815D01*
X116154091Y-64957483D01*
X116160500Y-64897873D01*
X116160499Y-63914651D01*
X120840000Y-63914651D01*
X120840000Y-64127144D01*
X120873242Y-64337025D01*
X120873242Y-64337028D01*
X120938904Y-64539115D01*
X121035375Y-64728448D01*
X121074728Y-64782614D01*
X121707037Y-64150306D01*
X121724075Y-64213891D01*
X121789901Y-64327905D01*
X121882993Y-64420997D01*
X121997007Y-64486823D01*
X122060590Y-64503860D01*
X121428282Y-65136167D01*
X121428282Y-65136168D01*
X121482449Y-65175522D01*
X121671782Y-65271993D01*
X121873870Y-65337655D01*
X122083754Y-65370898D01*
X122296246Y-65370898D01*
X122506127Y-65337655D01*
X122506130Y-65337655D01*
X122708217Y-65271993D01*
X122897554Y-65175520D01*
X122951716Y-65136168D01*
X122951717Y-65136168D01*
X122319408Y-64503860D01*
X122382993Y-64486823D01*
X122497007Y-64420997D01*
X122590099Y-64327905D01*
X122655925Y-64213891D01*
X122672962Y-64150307D01*
X123305270Y-64782615D01*
X123305270Y-64782614D01*
X123344622Y-64728453D01*
X123349232Y-64719405D01*
X123397205Y-64668607D01*
X123465025Y-64651810D01*
X123531161Y-64674345D01*
X123570204Y-64719402D01*
X123574949Y-64728715D01*
X123699890Y-64900684D01*
X123850213Y-65051007D01*
X124022179Y-65175946D01*
X124022181Y-65175947D01*
X124022184Y-65175949D01*
X124211588Y-65272455D01*
X124413757Y-65338144D01*
X124623713Y-65371398D01*
X124623714Y-65371398D01*
X124836286Y-65371398D01*
X124836287Y-65371398D01*
X125046243Y-65338144D01*
X125248412Y-65272455D01*
X125437816Y-65175949D01*
X125521334Y-65115270D01*
X125609786Y-65051007D01*
X125609788Y-65051004D01*
X125609792Y-65051002D01*
X125760104Y-64900690D01*
X125760106Y-64900686D01*
X125760109Y-64900684D01*
X125885048Y-64728718D01*
X125885050Y-64728715D01*
X125885051Y-64728714D01*
X125889514Y-64719952D01*
X125937488Y-64669157D01*
X126005308Y-64652361D01*
X126071444Y-64674897D01*
X126110486Y-64719954D01*
X126114951Y-64728718D01*
X126239890Y-64900684D01*
X126390213Y-65051007D01*
X126562179Y-65175946D01*
X126562181Y-65175947D01*
X126562184Y-65175949D01*
X126751588Y-65272455D01*
X126953757Y-65338144D01*
X127163713Y-65371398D01*
X127163714Y-65371398D01*
X127376286Y-65371398D01*
X127376287Y-65371398D01*
X127586243Y-65338144D01*
X127788412Y-65272455D01*
X127977816Y-65175949D01*
X128061334Y-65115270D01*
X128149784Y-65051008D01*
X128149784Y-65051007D01*
X128149792Y-65051002D01*
X128263329Y-64937464D01*
X128324648Y-64903982D01*
X128394340Y-64908966D01*
X128450274Y-64950837D01*
X128467189Y-64981815D01*
X128516202Y-65113226D01*
X128516206Y-65113233D01*
X128602452Y-65228442D01*
X128602455Y-65228445D01*
X128717664Y-65314691D01*
X128717671Y-65314695D01*
X128852517Y-65364989D01*
X128852516Y-65364989D01*
X128859444Y-65365733D01*
X128912127Y-65371398D01*
X130707872Y-65371397D01*
X130767483Y-65364989D01*
X130902331Y-65314694D01*
X131017546Y-65228444D01*
X131103796Y-65113229D01*
X131154091Y-64978381D01*
X131160500Y-64918771D01*
X131160500Y-64897648D01*
X133699500Y-64897648D01*
X133699500Y-65102352D01*
X133701546Y-65115269D01*
X133731522Y-65304534D01*
X133794781Y-65499223D01*
X133887715Y-65681613D01*
X134008028Y-65847213D01*
X134152786Y-65991971D01*
X134307749Y-66104556D01*
X134318390Y-66112287D01*
X134434607Y-66171503D01*
X134500776Y-66205218D01*
X134500778Y-66205218D01*
X134500781Y-66205220D01*
X134605137Y-66239127D01*
X134695465Y-66268477D01*
X134796557Y-66284488D01*
X134897648Y-66300500D01*
X134897649Y-66300500D01*
X135102351Y-66300500D01*
X135102352Y-66300500D01*
X135304534Y-66268477D01*
X135499219Y-66205220D01*
X135681610Y-66112287D01*
X135774590Y-66044732D01*
X135847213Y-65991971D01*
X135847215Y-65991968D01*
X135847219Y-65991966D01*
X135991966Y-65847219D01*
X135991968Y-65847215D01*
X135991971Y-65847213D01*
X136044732Y-65774590D01*
X136112287Y-65681610D01*
X136205220Y-65499219D01*
X136268477Y-65304534D01*
X136300500Y-65102352D01*
X136300500Y-64897648D01*
X136268477Y-64695466D01*
X136261614Y-64674345D01*
X136211756Y-64520898D01*
X136205220Y-64500781D01*
X136205218Y-64500778D01*
X136205218Y-64500776D01*
X136153920Y-64400099D01*
X136112287Y-64318390D01*
X136104017Y-64307007D01*
X135991971Y-64152786D01*
X135847213Y-64008028D01*
X135681613Y-63887715D01*
X135681612Y-63887714D01*
X135681610Y-63887713D01*
X135624653Y-63858691D01*
X135499223Y-63794781D01*
X135304534Y-63731522D01*
X135129995Y-63703878D01*
X135102352Y-63699500D01*
X134897648Y-63699500D01*
X134873329Y-63703351D01*
X134695465Y-63731522D01*
X134500776Y-63794781D01*
X134318386Y-63887715D01*
X134152786Y-64008028D01*
X134008028Y-64152786D01*
X133887715Y-64318386D01*
X133794781Y-64500776D01*
X133731522Y-64695465D01*
X133708195Y-64842750D01*
X133699500Y-64897648D01*
X131160500Y-64897648D01*
X131160499Y-64020898D01*
X131160499Y-63123027D01*
X131160498Y-63123021D01*
X131160196Y-63120213D01*
X131154091Y-63063415D01*
X131152810Y-63059981D01*
X131103797Y-62928569D01*
X131103793Y-62928562D01*
X131017547Y-62813353D01*
X131017544Y-62813350D01*
X130902335Y-62727104D01*
X130902328Y-62727100D01*
X130767482Y-62676806D01*
X130767483Y-62676806D01*
X130707883Y-62670399D01*
X130707881Y-62670398D01*
X130707873Y-62670398D01*
X130707864Y-62670398D01*
X128912129Y-62670398D01*
X128912123Y-62670399D01*
X128852516Y-62676806D01*
X128717671Y-62727100D01*
X128717664Y-62727104D01*
X128602455Y-62813350D01*
X128602452Y-62813353D01*
X128516206Y-62928562D01*
X128516203Y-62928567D01*
X128467189Y-63059981D01*
X128425317Y-63115914D01*
X128359853Y-63140331D01*
X128291580Y-63125479D01*
X128263326Y-63104328D01*
X128149786Y-62990788D01*
X127977820Y-62865849D01*
X127788414Y-62769342D01*
X127788413Y-62769341D01*
X127788412Y-62769341D01*
X127586243Y-62703652D01*
X127586241Y-62703651D01*
X127586240Y-62703651D01*
X127424957Y-62678106D01*
X127376287Y-62670398D01*
X127163713Y-62670398D01*
X127115042Y-62678106D01*
X126953760Y-62703651D01*
X126852672Y-62736496D01*
X126759255Y-62766850D01*
X126751585Y-62769342D01*
X126562179Y-62865849D01*
X126390213Y-62990788D01*
X126239890Y-63141111D01*
X126114949Y-63313080D01*
X126110484Y-63321844D01*
X126062509Y-63372640D01*
X125994688Y-63389434D01*
X125928553Y-63366896D01*
X125889516Y-63321844D01*
X125885050Y-63313080D01*
X125760109Y-63141111D01*
X125609786Y-62990788D01*
X125437820Y-62865849D01*
X125248414Y-62769342D01*
X125248413Y-62769341D01*
X125248412Y-62769341D01*
X125046243Y-62703652D01*
X125046241Y-62703651D01*
X125046240Y-62703651D01*
X124884957Y-62678106D01*
X124836287Y-62670398D01*
X124623713Y-62670398D01*
X124575042Y-62678106D01*
X124413760Y-62703651D01*
X124312672Y-62736496D01*
X124219255Y-62766850D01*
X124211585Y-62769342D01*
X124022179Y-62865849D01*
X123850213Y-62990788D01*
X123699890Y-63141111D01*
X123574949Y-63313080D01*
X123570202Y-63322397D01*
X123522227Y-63373191D01*
X123454405Y-63389985D01*
X123388271Y-63367446D01*
X123349234Y-63322393D01*
X123344626Y-63313350D01*
X123305270Y-63259180D01*
X123305269Y-63259180D01*
X122672962Y-63891488D01*
X122655925Y-63827905D01*
X122590099Y-63713891D01*
X122497007Y-63620799D01*
X122382993Y-63554973D01*
X122319409Y-63537935D01*
X122951716Y-62905626D01*
X122897550Y-62866273D01*
X122708217Y-62769802D01*
X122506129Y-62704140D01*
X122296246Y-62670898D01*
X122083754Y-62670898D01*
X121873872Y-62704140D01*
X121873869Y-62704140D01*
X121671782Y-62769802D01*
X121482439Y-62866278D01*
X121428282Y-62905625D01*
X121428282Y-62905626D01*
X122060591Y-63537935D01*
X121997007Y-63554973D01*
X121882993Y-63620799D01*
X121789901Y-63713891D01*
X121724075Y-63827905D01*
X121707037Y-63891489D01*
X121074728Y-63259180D01*
X121074727Y-63259180D01*
X121035380Y-63313337D01*
X120938904Y-63502680D01*
X120873242Y-63704767D01*
X120873242Y-63704770D01*
X120840000Y-63914651D01*
X116160499Y-63914651D01*
X116160499Y-63102128D01*
X116154091Y-63042517D01*
X116154091Y-63042516D01*
X116136823Y-62996218D01*
X116103797Y-62907671D01*
X116103793Y-62907664D01*
X116017547Y-62792455D01*
X116017544Y-62792452D01*
X115902335Y-62706206D01*
X115902328Y-62706202D01*
X115767482Y-62655908D01*
X115767483Y-62655908D01*
X115707883Y-62649501D01*
X115707881Y-62649500D01*
X115707873Y-62649500D01*
X115707864Y-62649500D01*
X113912129Y-62649500D01*
X113912123Y-62649501D01*
X113852516Y-62655908D01*
X113717671Y-62706202D01*
X113717664Y-62706206D01*
X113602455Y-62792452D01*
X113602452Y-62792455D01*
X113516206Y-62907664D01*
X113516203Y-62907669D01*
X113467189Y-63039083D01*
X113425317Y-63095016D01*
X113359853Y-63119433D01*
X113291580Y-63104581D01*
X113263326Y-63083430D01*
X113149786Y-62969890D01*
X112977820Y-62844951D01*
X112788414Y-62748444D01*
X112788413Y-62748443D01*
X112788412Y-62748443D01*
X112586243Y-62682754D01*
X112586241Y-62682753D01*
X112586240Y-62682753D01*
X112424957Y-62657208D01*
X112376287Y-62649500D01*
X112163713Y-62649500D01*
X112115042Y-62657208D01*
X111953760Y-62682753D01*
X111751585Y-62748444D01*
X111562179Y-62844951D01*
X111390213Y-62969890D01*
X111239890Y-63120213D01*
X111114949Y-63292182D01*
X111110484Y-63300946D01*
X111062509Y-63351742D01*
X110994688Y-63368536D01*
X110928553Y-63345998D01*
X110889516Y-63300946D01*
X110885050Y-63292182D01*
X110760109Y-63120213D01*
X110609786Y-62969890D01*
X110437820Y-62844951D01*
X110248414Y-62748444D01*
X110248413Y-62748443D01*
X110248412Y-62748443D01*
X110046243Y-62682754D01*
X110046241Y-62682753D01*
X110046240Y-62682753D01*
X109884957Y-62657208D01*
X109836287Y-62649500D01*
X109623713Y-62649500D01*
X109575042Y-62657208D01*
X109413760Y-62682753D01*
X109211585Y-62748444D01*
X109022179Y-62844951D01*
X108850213Y-62969890D01*
X108699890Y-63120213D01*
X108574949Y-63292182D01*
X108570202Y-63301499D01*
X108522227Y-63352293D01*
X108454405Y-63369087D01*
X108388271Y-63346548D01*
X108349234Y-63301495D01*
X108344626Y-63292452D01*
X108305270Y-63238282D01*
X108305269Y-63238282D01*
X107672962Y-63870590D01*
X107655925Y-63807007D01*
X107590099Y-63692993D01*
X107497007Y-63599901D01*
X107382993Y-63534075D01*
X107319409Y-63517037D01*
X107951716Y-62884728D01*
X107897550Y-62845375D01*
X107708217Y-62748904D01*
X107506129Y-62683242D01*
X107296246Y-62650000D01*
X107083754Y-62650000D01*
X106873872Y-62683242D01*
X106873869Y-62683242D01*
X106671782Y-62748904D01*
X106482439Y-62845380D01*
X106428282Y-62884727D01*
X106428282Y-62884728D01*
X107060591Y-63517037D01*
X106997007Y-63534075D01*
X106882993Y-63599901D01*
X106789901Y-63692993D01*
X106724075Y-63807007D01*
X106707037Y-63870591D01*
X106074728Y-63238282D01*
X106074727Y-63238282D01*
X106035380Y-63292439D01*
X105938904Y-63481782D01*
X105873242Y-63683869D01*
X105873242Y-63683872D01*
X105840000Y-63893753D01*
X100689924Y-63893753D01*
X100681613Y-63887715D01*
X100681612Y-63887714D01*
X100681610Y-63887713D01*
X100624653Y-63858691D01*
X100499223Y-63794781D01*
X100304534Y-63731522D01*
X100129995Y-63703878D01*
X100102352Y-63699500D01*
X99897648Y-63699500D01*
X99873329Y-63703351D01*
X99695465Y-63731522D01*
X99500776Y-63794781D01*
X99318386Y-63887715D01*
X99152786Y-64008028D01*
X99008028Y-64152786D01*
X98887715Y-64318386D01*
X98794781Y-64500776D01*
X98731522Y-64695465D01*
X98708195Y-64842750D01*
X98699500Y-64897648D01*
X97005864Y-64897648D01*
X97006460Y-64886286D01*
X97006460Y-64886285D01*
X97014718Y-64728714D01*
X97015184Y-64719814D01*
X97015794Y-64712424D01*
X97017362Y-64698507D01*
X97022814Y-64650112D01*
X97023553Y-64644658D01*
X97061850Y-64402860D01*
X97063420Y-64394721D01*
X97076105Y-64339144D01*
X97077172Y-64334844D01*
X97142288Y-64091829D01*
X97145008Y-64083014D01*
X97159932Y-64040363D01*
X97161178Y-64036963D01*
X97255752Y-63790592D01*
X97259768Y-63781292D01*
X97269719Y-63760629D01*
X97270842Y-63758363D01*
X97399419Y-63506014D01*
X97405880Y-63494824D01*
X97569825Y-63242371D01*
X97577434Y-63231899D01*
X97766858Y-62997979D01*
X97775525Y-62988354D01*
X97988354Y-62775525D01*
X97997979Y-62766858D01*
X98231899Y-62577434D01*
X98242371Y-62569825D01*
X98494824Y-62405880D01*
X98506014Y-62399419D01*
X98758363Y-62270842D01*
X98760629Y-62269719D01*
X98781292Y-62259768D01*
X98790592Y-62255752D01*
X99036963Y-62161178D01*
X99040363Y-62159932D01*
X99083014Y-62145008D01*
X99091829Y-62142288D01*
X99334844Y-62077172D01*
X99339144Y-62076105D01*
X99394721Y-62063420D01*
X99402860Y-62061850D01*
X99644658Y-62023553D01*
X99650112Y-62022814D01*
X99712430Y-62015793D01*
X99719811Y-62015184D01*
X99996756Y-62000669D01*
X100003246Y-62000500D01*
X134996754Y-62000500D01*
X135003243Y-62000669D01*
G37*
%TD.AperFunction*%
%TD*%
M02*
