%TF.GenerationSoftware,KiCad,Pcbnew,10.0.6*%
%TF.CreationDate,2026-10-05T19:18:49+07:00*%
%TF.ProjectId,STM32,53544d33-322e-46b6-9963-61645f706362,rev?*%
%TF.SameCoordinates,Original*%
%TF.FileFunction,Paste,Top*%
%TF.FilePolarity,Positive*%
%FSLAX46Y46*%
G04 Gerber Fmt 4.6, Leading zero omitted, Abs format (unit mm)*
G04 Created by KiCad (PCBNEW 10.0.6) date 2026-10-05 19:18:49*
%MOMM*%
%LPD*%
G01*
G04 APERTURE LIST*
G04 Aperture macros list*
%AMRoundRect*
0 Rectangle with rounded corners*
0 $1 Rounding radius*
0 $2 $3 $4 $5 $6 $7 $8 $9 X,Y pos of 4 corners*
0 Add a 4 corners polygon primitive as box body*
4,1,4,$2,$3,$4,$5,$6,$7,$8,$9,$2,$3,0*
0 Add four circle primitives for the rounded corners*
1,1,$1+$1,$2,$3*
1,1,$1+$1,$4,$5*
1,1,$1+$1,$6,$7*
1,1,$1+$1,$8,$9*
0 Add four rect primitives between the rounded corners*
20,1,$1+$1,$2,$3,$4,$5,0*
20,1,$1+$1,$4,$5,$6,$7,0*
20,1,$1+$1,$6,$7,$8,$9,0*
20,1,$1+$1,$8,$9,$2,$3,0*%
G04 Aperture macros list end*
%ADD10R,0.800000X1.000000*%
%ADD11R,1.500000X0.700000*%
%ADD12RoundRect,0.375000X-0.375000X0.625000X-0.375000X-0.625000X0.375000X-0.625000X0.375000X0.625000X0*%
%ADD13RoundRect,0.500000X-1.400000X0.500000X-1.400000X-0.500000X1.400000X-0.500000X1.400000X0.500000X0*%
%ADD14RoundRect,0.218750X-0.256250X0.218750X-0.256250X-0.218750X0.256250X-0.218750X0.256250X0.218750X0*%
%ADD15RoundRect,0.225000X-0.225000X-0.250000X0.225000X-0.250000X0.225000X0.250000X-0.225000X0.250000X0*%
%ADD16RoundRect,0.135000X-0.135000X-0.185000X0.135000X-0.185000X0.135000X0.185000X-0.135000X0.185000X0*%
%ADD17RoundRect,0.140000X-0.170000X0.140000X-0.170000X-0.140000X0.170000X-0.140000X0.170000X0.140000X0*%
%ADD18RoundRect,0.135000X-0.185000X0.135000X-0.185000X-0.135000X0.185000X-0.135000X0.185000X0.135000X0*%
%ADD19RoundRect,0.140000X-0.140000X-0.170000X0.140000X-0.170000X0.140000X0.170000X-0.140000X0.170000X0*%
%ADD20RoundRect,0.075000X-0.075000X-0.662500X0.075000X-0.662500X0.075000X0.662500X-0.075000X0.662500X0*%
%ADD21RoundRect,0.075000X-0.662500X-0.075000X0.662500X-0.075000X0.662500X0.075000X-0.662500X0.075000X0*%
%ADD22RoundRect,0.140000X0.170000X-0.140000X0.170000X0.140000X-0.170000X0.140000X-0.170000X-0.140000X0*%
%ADD23RoundRect,0.250000X-0.250000X-0.475000X0.250000X-0.475000X0.250000X0.475000X-0.250000X0.475000X0*%
%ADD24RoundRect,0.140000X0.140000X0.170000X-0.140000X0.170000X-0.140000X-0.170000X0.140000X-0.170000X0*%
%ADD25RoundRect,0.135000X0.135000X0.185000X-0.135000X0.185000X-0.135000X-0.185000X0.135000X-0.185000X0*%
%ADD26RoundRect,0.250000X0.475000X-0.250000X0.475000X0.250000X-0.475000X0.250000X-0.475000X-0.250000X0*%
%ADD27RoundRect,0.112500X0.537500X-0.112500X0.537500X0.112500X-0.537500X0.112500X-0.537500X-0.112500X0*%
%ADD28RoundRect,0.250000X-0.350000X0.450000X-0.350000X-0.450000X0.350000X-0.450000X0.350000X0.450000X0*%
%ADD29RoundRect,0.135000X0.185000X-0.135000X0.185000X0.135000X-0.185000X0.135000X-0.185000X-0.135000X0*%
G04 APERTURE END LIST*
D10*
%TO.C,SW1*%
X100238485Y-68847802D03*
X98028485Y-68847802D03*
X100238485Y-76147802D03*
X98028485Y-76147802D03*
D11*
X100888485Y-70247802D03*
X100888485Y-73247802D03*
X100888485Y-74747802D03*
%TD*%
D12*
%TO.C,U1*%
X127629426Y-81350000D03*
X125329426Y-81350000D03*
D13*
X125329426Y-87650000D03*
D12*
X123029426Y-81350000D03*
%TD*%
D14*
%TO.C,FB1*%
X110984028Y-83558718D03*
X110984028Y-81983718D03*
%TD*%
D15*
%TO.C,C3*%
X114015811Y-70020545D03*
X112465811Y-70020545D03*
%TD*%
D16*
%TO.C,R1*%
X134352924Y-81948772D03*
X133332924Y-81948772D03*
%TD*%
D17*
%TO.C,C5*%
X108161968Y-75977313D03*
X108161968Y-75017313D03*
%TD*%
D18*
%TO.C,R5*%
X125304824Y-76025982D03*
X125304824Y-75005982D03*
%TD*%
D19*
%TO.C,C10*%
X113730000Y-71500000D03*
X112770000Y-71500000D03*
%TD*%
D20*
%TO.C,U2*%
X113024207Y-73296230D03*
X113524207Y-73296230D03*
X114024207Y-73296230D03*
X114524207Y-73296230D03*
X115024207Y-73296230D03*
X115524207Y-73296230D03*
X116024207Y-73296230D03*
X116524207Y-73296230D03*
X117024207Y-73296230D03*
X117524207Y-73296230D03*
X118024207Y-73296230D03*
X118524207Y-73296230D03*
D21*
X119936707Y-74708730D03*
X119936707Y-75208730D03*
X119936707Y-75708730D03*
X119936707Y-76208730D03*
X119936707Y-76708730D03*
X119936707Y-77208730D03*
X119936707Y-77708730D03*
X119936707Y-78208730D03*
X119936707Y-78708730D03*
X119936707Y-79208730D03*
X119936707Y-79708730D03*
X119936707Y-80208730D03*
D20*
X118524207Y-81621230D03*
X118024207Y-81621230D03*
X117524207Y-81621230D03*
X117024207Y-81621230D03*
X116524207Y-81621230D03*
X116024207Y-81621230D03*
X115524207Y-81621230D03*
X115024207Y-81621230D03*
X114524207Y-81621230D03*
X114024207Y-81621230D03*
X113524207Y-81621230D03*
X113024207Y-81621230D03*
D21*
X111611707Y-80208730D03*
X111611707Y-79708730D03*
X111611707Y-79208730D03*
X111611707Y-78708730D03*
X111611707Y-78208730D03*
X111611707Y-77708730D03*
X111611707Y-77208730D03*
X111611707Y-76708730D03*
X111611707Y-76208730D03*
X111611707Y-75708730D03*
X111611707Y-75208730D03*
X111611707Y-74708730D03*
%TD*%
D14*
%TO.C,D1*%
X133338461Y-85115155D03*
X133338461Y-83540155D03*
%TD*%
D22*
%TO.C,C6*%
X109770420Y-73746640D03*
X109770420Y-74706640D03*
%TD*%
D23*
%TO.C,C1*%
X126279426Y-79000000D03*
X124379426Y-79000000D03*
%TD*%
D19*
%TO.C,C4*%
X114002814Y-83635378D03*
X113042814Y-83635378D03*
%TD*%
D17*
%TO.C,C9*%
X121878632Y-75433479D03*
X121878632Y-74473479D03*
%TD*%
D24*
%TO.C,C7*%
X118210109Y-83619493D03*
X119170109Y-83619493D03*
%TD*%
D25*
%TO.C,R2*%
X113310197Y-86939764D03*
X114330197Y-86939764D03*
%TD*%
D22*
%TO.C,C11*%
X109780654Y-78028614D03*
X109780654Y-78988614D03*
%TD*%
D17*
%TO.C,C8*%
X108161968Y-77977313D03*
X108161968Y-77017313D03*
%TD*%
D26*
%TO.C,C2*%
X130126373Y-83362087D03*
X130126373Y-85262087D03*
%TD*%
D27*
%TO.C,J4*%
X132049957Y-74732094D03*
X132049957Y-75382094D03*
X132049957Y-76032094D03*
X132049957Y-76682094D03*
X132049957Y-77332094D03*
%TD*%
D28*
%TO.C,Y1*%
X106511968Y-75397313D03*
X106511968Y-77597313D03*
X104811968Y-77597313D03*
X104811968Y-75397313D03*
%TD*%
D24*
%TO.C,C13*%
X108744815Y-83571968D03*
X109704815Y-83571968D03*
%TD*%
D29*
%TO.C,R4*%
X103000000Y-70740000D03*
X103000000Y-71760000D03*
%TD*%
D16*
%TO.C,R3*%
X116689341Y-86953910D03*
X115669341Y-86953910D03*
%TD*%
D24*
%TO.C,C12*%
X108749849Y-82000000D03*
X109709849Y-82000000D03*
%TD*%
M02*
