%TF.GenerationSoftware,KiCad,Pcbnew,10.0.6*%
%TF.CreationDate,2026-10-05T19:18:49+07:00*%
%TF.ProjectId,STM32,53544d33-322e-46b6-9963-61645f706362,rev?*%
%TF.SameCoordinates,Original*%
%TF.FileFunction,Legend,Top*%
%TF.FilePolarity,Positive*%
%FSLAX46Y46*%
G04 Gerber Fmt 4.6, Leading zero omitted, Abs format (unit mm)*
G04 Created by KiCad (PCBNEW 10.0.6) date 2026-10-05 19:18:49*
%MOMM*%
%LPD*%
G01*
G04 APERTURE LIST*
%ADD10C,0.200000*%
%ADD11C,0.150000*%
%ADD12C,0.125000*%
%ADD13C,0.120000*%
G04 APERTURE END LIST*
D10*
X135167292Y-83714278D02*
X135405387Y-83714278D01*
X135405387Y-83714278D02*
X135524435Y-83773802D01*
X135524435Y-83773802D02*
X135643482Y-83892850D01*
X135643482Y-83892850D02*
X135703006Y-84130945D01*
X135703006Y-84130945D02*
X135703006Y-84547612D01*
X135703006Y-84547612D02*
X135643482Y-84785707D01*
X135643482Y-84785707D02*
X135524435Y-84904755D01*
X135524435Y-84904755D02*
X135405387Y-84964278D01*
X135405387Y-84964278D02*
X135167292Y-84964278D01*
X135167292Y-84964278D02*
X135048244Y-84904755D01*
X135048244Y-84904755D02*
X134929197Y-84785707D01*
X134929197Y-84785707D02*
X134869673Y-84547612D01*
X134869673Y-84547612D02*
X134869673Y-84130945D01*
X134869673Y-84130945D02*
X134929197Y-83892850D01*
X134929197Y-83892850D02*
X135048244Y-83773802D01*
X135048244Y-83773802D02*
X135167292Y-83714278D01*
X136238721Y-84964278D02*
X136238721Y-83714278D01*
X136238721Y-83714278D02*
X136953006Y-84964278D01*
X136953006Y-84964278D02*
X136953006Y-83714278D01*
X105929197Y-91336623D02*
X105929197Y-90086623D01*
X106464911Y-90205671D02*
X106524435Y-90146147D01*
X106524435Y-90146147D02*
X106643482Y-90086623D01*
X106643482Y-90086623D02*
X106941101Y-90086623D01*
X106941101Y-90086623D02*
X107060149Y-90146147D01*
X107060149Y-90146147D02*
X107119673Y-90205671D01*
X107119673Y-90205671D02*
X107179196Y-90324719D01*
X107179196Y-90324719D02*
X107179196Y-90443766D01*
X107179196Y-90443766D02*
X107119673Y-90622338D01*
X107119673Y-90622338D02*
X106405387Y-91336623D01*
X106405387Y-91336623D02*
X107179196Y-91336623D01*
X108429196Y-91217576D02*
X108369672Y-91277100D01*
X108369672Y-91277100D02*
X108191101Y-91336623D01*
X108191101Y-91336623D02*
X108072053Y-91336623D01*
X108072053Y-91336623D02*
X107893482Y-91277100D01*
X107893482Y-91277100D02*
X107774434Y-91158052D01*
X107774434Y-91158052D02*
X107714911Y-91039004D01*
X107714911Y-91039004D02*
X107655387Y-90800909D01*
X107655387Y-90800909D02*
X107655387Y-90622338D01*
X107655387Y-90622338D02*
X107714911Y-90384242D01*
X107714911Y-90384242D02*
X107774434Y-90265195D01*
X107774434Y-90265195D02*
X107893482Y-90146147D01*
X107893482Y-90146147D02*
X108072053Y-90086623D01*
X108072053Y-90086623D02*
X108191101Y-90086623D01*
X108191101Y-90086623D02*
X108369672Y-90146147D01*
X108369672Y-90146147D02*
X108429196Y-90205671D01*
X98345863Y-78181861D02*
X98524435Y-78241385D01*
X98524435Y-78241385D02*
X98583958Y-78300909D01*
X98583958Y-78300909D02*
X98643482Y-78419957D01*
X98643482Y-78419957D02*
X98643482Y-78598528D01*
X98643482Y-78598528D02*
X98583958Y-78717576D01*
X98583958Y-78717576D02*
X98524435Y-78777100D01*
X98524435Y-78777100D02*
X98405387Y-78836623D01*
X98405387Y-78836623D02*
X97929197Y-78836623D01*
X97929197Y-78836623D02*
X97929197Y-77586623D01*
X97929197Y-77586623D02*
X98345863Y-77586623D01*
X98345863Y-77586623D02*
X98464911Y-77646147D01*
X98464911Y-77646147D02*
X98524435Y-77705671D01*
X98524435Y-77705671D02*
X98583958Y-77824719D01*
X98583958Y-77824719D02*
X98583958Y-77943766D01*
X98583958Y-77943766D02*
X98524435Y-78062814D01*
X98524435Y-78062814D02*
X98464911Y-78122338D01*
X98464911Y-78122338D02*
X98345863Y-78181861D01*
X98345863Y-78181861D02*
X97929197Y-78181861D01*
X99417292Y-77586623D02*
X99655387Y-77586623D01*
X99655387Y-77586623D02*
X99774435Y-77646147D01*
X99774435Y-77646147D02*
X99893482Y-77765195D01*
X99893482Y-77765195D02*
X99953006Y-78003290D01*
X99953006Y-78003290D02*
X99953006Y-78419957D01*
X99953006Y-78419957D02*
X99893482Y-78658052D01*
X99893482Y-78658052D02*
X99774435Y-78777100D01*
X99774435Y-78777100D02*
X99655387Y-78836623D01*
X99655387Y-78836623D02*
X99417292Y-78836623D01*
X99417292Y-78836623D02*
X99298244Y-78777100D01*
X99298244Y-78777100D02*
X99179197Y-78658052D01*
X99179197Y-78658052D02*
X99119673Y-78419957D01*
X99119673Y-78419957D02*
X99119673Y-78003290D01*
X99119673Y-78003290D02*
X99179197Y-77765195D01*
X99179197Y-77765195D02*
X99298244Y-77646147D01*
X99298244Y-77646147D02*
X99417292Y-77586623D01*
X100726816Y-77586623D02*
X100964911Y-77586623D01*
X100964911Y-77586623D02*
X101083959Y-77646147D01*
X101083959Y-77646147D02*
X101203006Y-77765195D01*
X101203006Y-77765195D02*
X101262530Y-78003290D01*
X101262530Y-78003290D02*
X101262530Y-78419957D01*
X101262530Y-78419957D02*
X101203006Y-78658052D01*
X101203006Y-78658052D02*
X101083959Y-78777100D01*
X101083959Y-78777100D02*
X100964911Y-78836623D01*
X100964911Y-78836623D02*
X100726816Y-78836623D01*
X100726816Y-78836623D02*
X100607768Y-78777100D01*
X100607768Y-78777100D02*
X100488721Y-78658052D01*
X100488721Y-78658052D02*
X100429197Y-78419957D01*
X100429197Y-78419957D02*
X100429197Y-78003290D01*
X100429197Y-78003290D02*
X100488721Y-77765195D01*
X100488721Y-77765195D02*
X100607768Y-77646147D01*
X100607768Y-77646147D02*
X100726816Y-77586623D01*
X101619673Y-77586623D02*
X102333959Y-77586623D01*
X101976816Y-78836623D02*
X101976816Y-77586623D01*
X132929197Y-69086623D02*
X132929197Y-70098528D01*
X132929197Y-70098528D02*
X132988720Y-70217576D01*
X132988720Y-70217576D02*
X133048244Y-70277100D01*
X133048244Y-70277100D02*
X133167292Y-70336623D01*
X133167292Y-70336623D02*
X133405387Y-70336623D01*
X133405387Y-70336623D02*
X133524435Y-70277100D01*
X133524435Y-70277100D02*
X133583958Y-70217576D01*
X133583958Y-70217576D02*
X133643482Y-70098528D01*
X133643482Y-70098528D02*
X133643482Y-69086623D01*
X134179197Y-70277100D02*
X134357768Y-70336623D01*
X134357768Y-70336623D02*
X134655387Y-70336623D01*
X134655387Y-70336623D02*
X134774435Y-70277100D01*
X134774435Y-70277100D02*
X134833959Y-70217576D01*
X134833959Y-70217576D02*
X134893482Y-70098528D01*
X134893482Y-70098528D02*
X134893482Y-69979480D01*
X134893482Y-69979480D02*
X134833959Y-69860433D01*
X134833959Y-69860433D02*
X134774435Y-69800909D01*
X134774435Y-69800909D02*
X134655387Y-69741385D01*
X134655387Y-69741385D02*
X134417292Y-69681861D01*
X134417292Y-69681861D02*
X134298244Y-69622338D01*
X134298244Y-69622338D02*
X134238721Y-69562814D01*
X134238721Y-69562814D02*
X134179197Y-69443766D01*
X134179197Y-69443766D02*
X134179197Y-69324719D01*
X134179197Y-69324719D02*
X134238721Y-69205671D01*
X134238721Y-69205671D02*
X134298244Y-69146147D01*
X134298244Y-69146147D02*
X134417292Y-69086623D01*
X134417292Y-69086623D02*
X134714911Y-69086623D01*
X134714911Y-69086623D02*
X134893482Y-69146147D01*
X135845863Y-69681861D02*
X136024435Y-69741385D01*
X136024435Y-69741385D02*
X136083958Y-69800909D01*
X136083958Y-69800909D02*
X136143482Y-69919957D01*
X136143482Y-69919957D02*
X136143482Y-70098528D01*
X136143482Y-70098528D02*
X136083958Y-70217576D01*
X136083958Y-70217576D02*
X136024435Y-70277100D01*
X136024435Y-70277100D02*
X135905387Y-70336623D01*
X135905387Y-70336623D02*
X135429197Y-70336623D01*
X135429197Y-70336623D02*
X135429197Y-69086623D01*
X135429197Y-69086623D02*
X135845863Y-69086623D01*
X135845863Y-69086623D02*
X135964911Y-69146147D01*
X135964911Y-69146147D02*
X136024435Y-69205671D01*
X136024435Y-69205671D02*
X136083958Y-69324719D01*
X136083958Y-69324719D02*
X136083958Y-69443766D01*
X136083958Y-69443766D02*
X136024435Y-69562814D01*
X136024435Y-69562814D02*
X135964911Y-69622338D01*
X135964911Y-69622338D02*
X135845863Y-69681861D01*
X135845863Y-69681861D02*
X135429197Y-69681861D01*
X108929197Y-66086623D02*
X108929197Y-67098528D01*
X108929197Y-67098528D02*
X108988720Y-67217576D01*
X108988720Y-67217576D02*
X109048244Y-67277100D01*
X109048244Y-67277100D02*
X109167292Y-67336623D01*
X109167292Y-67336623D02*
X109405387Y-67336623D01*
X109405387Y-67336623D02*
X109524435Y-67277100D01*
X109524435Y-67277100D02*
X109583958Y-67217576D01*
X109583958Y-67217576D02*
X109643482Y-67098528D01*
X109643482Y-67098528D02*
X109643482Y-66086623D01*
X110179197Y-66979480D02*
X110774435Y-66979480D01*
X110060149Y-67336623D02*
X110476816Y-66086623D01*
X110476816Y-66086623D02*
X110893482Y-67336623D01*
X112024435Y-67336623D02*
X111607769Y-66741385D01*
X111310150Y-67336623D02*
X111310150Y-66086623D01*
X111310150Y-66086623D02*
X111786340Y-66086623D01*
X111786340Y-66086623D02*
X111905388Y-66146147D01*
X111905388Y-66146147D02*
X111964911Y-66205671D01*
X111964911Y-66205671D02*
X112024435Y-66324719D01*
X112024435Y-66324719D02*
X112024435Y-66503290D01*
X112024435Y-66503290D02*
X111964911Y-66622338D01*
X111964911Y-66622338D02*
X111905388Y-66681861D01*
X111905388Y-66681861D02*
X111786340Y-66741385D01*
X111786340Y-66741385D02*
X111310150Y-66741385D01*
X112381578Y-66086623D02*
X113095864Y-66086623D01*
X112738721Y-67336623D02*
X112738721Y-66086623D01*
X124619673Y-67277100D02*
X124798244Y-67336623D01*
X124798244Y-67336623D02*
X125095863Y-67336623D01*
X125095863Y-67336623D02*
X125214911Y-67277100D01*
X125214911Y-67277100D02*
X125274435Y-67217576D01*
X125274435Y-67217576D02*
X125333958Y-67098528D01*
X125333958Y-67098528D02*
X125333958Y-66979480D01*
X125333958Y-66979480D02*
X125274435Y-66860433D01*
X125274435Y-66860433D02*
X125214911Y-66800909D01*
X125214911Y-66800909D02*
X125095863Y-66741385D01*
X125095863Y-66741385D02*
X124857768Y-66681861D01*
X124857768Y-66681861D02*
X124738720Y-66622338D01*
X124738720Y-66622338D02*
X124679197Y-66562814D01*
X124679197Y-66562814D02*
X124619673Y-66443766D01*
X124619673Y-66443766D02*
X124619673Y-66324719D01*
X124619673Y-66324719D02*
X124679197Y-66205671D01*
X124679197Y-66205671D02*
X124738720Y-66146147D01*
X124738720Y-66146147D02*
X124857768Y-66086623D01*
X124857768Y-66086623D02*
X125155387Y-66086623D01*
X125155387Y-66086623D02*
X125333958Y-66146147D01*
X125750625Y-66086623D02*
X126048244Y-67336623D01*
X126048244Y-67336623D02*
X126286339Y-66443766D01*
X126286339Y-66443766D02*
X126524434Y-67336623D01*
X126524434Y-67336623D02*
X126822054Y-66086623D01*
X127298244Y-67336623D02*
X127298244Y-66086623D01*
X127298244Y-66086623D02*
X127595863Y-66086623D01*
X127595863Y-66086623D02*
X127774434Y-66146147D01*
X127774434Y-66146147D02*
X127893482Y-66265195D01*
X127893482Y-66265195D02*
X127953005Y-66384242D01*
X127953005Y-66384242D02*
X128012529Y-66622338D01*
X128012529Y-66622338D02*
X128012529Y-66800909D01*
X128012529Y-66800909D02*
X127953005Y-67039004D01*
X127953005Y-67039004D02*
X127893482Y-67158052D01*
X127893482Y-67158052D02*
X127774434Y-67277100D01*
X127774434Y-67277100D02*
X127595863Y-67336623D01*
X127595863Y-67336623D02*
X127298244Y-67336623D01*
D11*
X123738095Y-89204819D02*
X123738095Y-90014342D01*
X123738095Y-90014342D02*
X123785714Y-90109580D01*
X123785714Y-90109580D02*
X123833333Y-90157200D01*
X123833333Y-90157200D02*
X123928571Y-90204819D01*
X123928571Y-90204819D02*
X124119047Y-90204819D01*
X124119047Y-90204819D02*
X124214285Y-90157200D01*
X124214285Y-90157200D02*
X124261904Y-90109580D01*
X124261904Y-90109580D02*
X124309523Y-90014342D01*
X124309523Y-90014342D02*
X124309523Y-89204819D01*
X125309523Y-90204819D02*
X124738095Y-90204819D01*
X125023809Y-90204819D02*
X125023809Y-89204819D01*
X125023809Y-89204819D02*
X124928571Y-89347676D01*
X124928571Y-89347676D02*
X124833333Y-89442914D01*
X124833333Y-89442914D02*
X124738095Y-89490533D01*
X109381434Y-84762050D02*
X109114768Y-84762050D01*
X109114768Y-85181098D02*
X109114768Y-84381098D01*
X109114768Y-84381098D02*
X109495720Y-84381098D01*
X110067148Y-84762050D02*
X110181434Y-84800145D01*
X110181434Y-84800145D02*
X110219529Y-84838241D01*
X110219529Y-84838241D02*
X110257625Y-84914431D01*
X110257625Y-84914431D02*
X110257625Y-85028717D01*
X110257625Y-85028717D02*
X110219529Y-85104907D01*
X110219529Y-85104907D02*
X110181434Y-85143003D01*
X110181434Y-85143003D02*
X110105244Y-85181098D01*
X110105244Y-85181098D02*
X109800482Y-85181098D01*
X109800482Y-85181098D02*
X109800482Y-84381098D01*
X109800482Y-84381098D02*
X110067148Y-84381098D01*
X110067148Y-84381098D02*
X110143339Y-84419193D01*
X110143339Y-84419193D02*
X110181434Y-84457288D01*
X110181434Y-84457288D02*
X110219529Y-84533479D01*
X110219529Y-84533479D02*
X110219529Y-84609669D01*
X110219529Y-84609669D02*
X110181434Y-84685860D01*
X110181434Y-84685860D02*
X110143339Y-84723955D01*
X110143339Y-84723955D02*
X110067148Y-84762050D01*
X110067148Y-84762050D02*
X109800482Y-84762050D01*
X111019529Y-85181098D02*
X110562386Y-85181098D01*
X110790958Y-85181098D02*
X110790958Y-84381098D01*
X110790958Y-84381098D02*
X110714767Y-84495383D01*
X110714767Y-84495383D02*
X110638577Y-84571574D01*
X110638577Y-84571574D02*
X110562386Y-84609669D01*
X113034412Y-68739848D02*
X112986793Y-68787468D01*
X112986793Y-68787468D02*
X112843936Y-68835087D01*
X112843936Y-68835087D02*
X112748698Y-68835087D01*
X112748698Y-68835087D02*
X112605841Y-68787468D01*
X112605841Y-68787468D02*
X112510603Y-68692229D01*
X112510603Y-68692229D02*
X112462984Y-68596991D01*
X112462984Y-68596991D02*
X112415365Y-68406515D01*
X112415365Y-68406515D02*
X112415365Y-68263658D01*
X112415365Y-68263658D02*
X112462984Y-68073182D01*
X112462984Y-68073182D02*
X112510603Y-67977944D01*
X112510603Y-67977944D02*
X112605841Y-67882706D01*
X112605841Y-67882706D02*
X112748698Y-67835087D01*
X112748698Y-67835087D02*
X112843936Y-67835087D01*
X112843936Y-67835087D02*
X112986793Y-67882706D01*
X112986793Y-67882706D02*
X113034412Y-67930325D01*
X113367746Y-67835087D02*
X113986793Y-67835087D01*
X113986793Y-67835087D02*
X113653460Y-68216039D01*
X113653460Y-68216039D02*
X113796317Y-68216039D01*
X113796317Y-68216039D02*
X113891555Y-68263658D01*
X113891555Y-68263658D02*
X113939174Y-68311277D01*
X113939174Y-68311277D02*
X113986793Y-68406515D01*
X113986793Y-68406515D02*
X113986793Y-68644610D01*
X113986793Y-68644610D02*
X113939174Y-68739848D01*
X113939174Y-68739848D02*
X113891555Y-68787468D01*
X113891555Y-68787468D02*
X113796317Y-68835087D01*
X113796317Y-68835087D02*
X113510603Y-68835087D01*
X113510603Y-68835087D02*
X113415365Y-68787468D01*
X113415365Y-68787468D02*
X113367746Y-68739848D01*
X131833333Y-82454819D02*
X131500000Y-81978628D01*
X131261905Y-82454819D02*
X131261905Y-81454819D01*
X131261905Y-81454819D02*
X131642857Y-81454819D01*
X131642857Y-81454819D02*
X131738095Y-81502438D01*
X131738095Y-81502438D02*
X131785714Y-81550057D01*
X131785714Y-81550057D02*
X131833333Y-81645295D01*
X131833333Y-81645295D02*
X131833333Y-81788152D01*
X131833333Y-81788152D02*
X131785714Y-81883390D01*
X131785714Y-81883390D02*
X131738095Y-81931009D01*
X131738095Y-81931009D02*
X131642857Y-81978628D01*
X131642857Y-81978628D02*
X131261905Y-81978628D01*
X132785714Y-82454819D02*
X132214286Y-82454819D01*
X132500000Y-82454819D02*
X132500000Y-81454819D01*
X132500000Y-81454819D02*
X132404762Y-81597676D01*
X132404762Y-81597676D02*
X132309524Y-81692914D01*
X132309524Y-81692914D02*
X132214286Y-81740533D01*
X106345301Y-73856893D02*
X106297682Y-73904513D01*
X106297682Y-73904513D02*
X106154825Y-73952132D01*
X106154825Y-73952132D02*
X106059587Y-73952132D01*
X106059587Y-73952132D02*
X105916730Y-73904513D01*
X105916730Y-73904513D02*
X105821492Y-73809274D01*
X105821492Y-73809274D02*
X105773873Y-73714036D01*
X105773873Y-73714036D02*
X105726254Y-73523560D01*
X105726254Y-73523560D02*
X105726254Y-73380703D01*
X105726254Y-73380703D02*
X105773873Y-73190227D01*
X105773873Y-73190227D02*
X105821492Y-73094989D01*
X105821492Y-73094989D02*
X105916730Y-72999751D01*
X105916730Y-72999751D02*
X106059587Y-72952132D01*
X106059587Y-72952132D02*
X106154825Y-72952132D01*
X106154825Y-72952132D02*
X106297682Y-72999751D01*
X106297682Y-72999751D02*
X106345301Y-73047370D01*
X107250063Y-72952132D02*
X106773873Y-72952132D01*
X106773873Y-72952132D02*
X106726254Y-73428322D01*
X106726254Y-73428322D02*
X106773873Y-73380703D01*
X106773873Y-73380703D02*
X106869111Y-73333084D01*
X106869111Y-73333084D02*
X107107206Y-73333084D01*
X107107206Y-73333084D02*
X107202444Y-73380703D01*
X107202444Y-73380703D02*
X107250063Y-73428322D01*
X107250063Y-73428322D02*
X107297682Y-73523560D01*
X107297682Y-73523560D02*
X107297682Y-73761655D01*
X107297682Y-73761655D02*
X107250063Y-73856893D01*
X107250063Y-73856893D02*
X107202444Y-73904513D01*
X107202444Y-73904513D02*
X107107206Y-73952132D01*
X107107206Y-73952132D02*
X106869111Y-73952132D01*
X106869111Y-73952132D02*
X106773873Y-73904513D01*
X106773873Y-73904513D02*
X106726254Y-73856893D01*
X126638157Y-75970801D02*
X126304824Y-75494610D01*
X126066729Y-75970801D02*
X126066729Y-74970801D01*
X126066729Y-74970801D02*
X126447681Y-74970801D01*
X126447681Y-74970801D02*
X126542919Y-75018420D01*
X126542919Y-75018420D02*
X126590538Y-75066039D01*
X126590538Y-75066039D02*
X126638157Y-75161277D01*
X126638157Y-75161277D02*
X126638157Y-75304134D01*
X126638157Y-75304134D02*
X126590538Y-75399372D01*
X126590538Y-75399372D02*
X126542919Y-75446991D01*
X126542919Y-75446991D02*
X126447681Y-75494610D01*
X126447681Y-75494610D02*
X126066729Y-75494610D01*
X127542919Y-74970801D02*
X127066729Y-74970801D01*
X127066729Y-74970801D02*
X127019110Y-75446991D01*
X127019110Y-75446991D02*
X127066729Y-75399372D01*
X127066729Y-75399372D02*
X127161967Y-75351753D01*
X127161967Y-75351753D02*
X127400062Y-75351753D01*
X127400062Y-75351753D02*
X127495300Y-75399372D01*
X127495300Y-75399372D02*
X127542919Y-75446991D01*
X127542919Y-75446991D02*
X127590538Y-75542229D01*
X127590538Y-75542229D02*
X127590538Y-75780324D01*
X127590538Y-75780324D02*
X127542919Y-75875562D01*
X127542919Y-75875562D02*
X127495300Y-75923182D01*
X127495300Y-75923182D02*
X127400062Y-75970801D01*
X127400062Y-75970801D02*
X127161967Y-75970801D01*
X127161967Y-75970801D02*
X127066729Y-75923182D01*
X127066729Y-75923182D02*
X127019110Y-75875562D01*
X110107142Y-71859580D02*
X110059523Y-71907200D01*
X110059523Y-71907200D02*
X109916666Y-71954819D01*
X109916666Y-71954819D02*
X109821428Y-71954819D01*
X109821428Y-71954819D02*
X109678571Y-71907200D01*
X109678571Y-71907200D02*
X109583333Y-71811961D01*
X109583333Y-71811961D02*
X109535714Y-71716723D01*
X109535714Y-71716723D02*
X109488095Y-71526247D01*
X109488095Y-71526247D02*
X109488095Y-71383390D01*
X109488095Y-71383390D02*
X109535714Y-71192914D01*
X109535714Y-71192914D02*
X109583333Y-71097676D01*
X109583333Y-71097676D02*
X109678571Y-71002438D01*
X109678571Y-71002438D02*
X109821428Y-70954819D01*
X109821428Y-70954819D02*
X109916666Y-70954819D01*
X109916666Y-70954819D02*
X110059523Y-71002438D01*
X110059523Y-71002438D02*
X110107142Y-71050057D01*
X111059523Y-71954819D02*
X110488095Y-71954819D01*
X110773809Y-71954819D02*
X110773809Y-70954819D01*
X110773809Y-70954819D02*
X110678571Y-71097676D01*
X110678571Y-71097676D02*
X110583333Y-71192914D01*
X110583333Y-71192914D02*
X110488095Y-71240533D01*
X111678571Y-70954819D02*
X111773809Y-70954819D01*
X111773809Y-70954819D02*
X111869047Y-71002438D01*
X111869047Y-71002438D02*
X111916666Y-71050057D01*
X111916666Y-71050057D02*
X111964285Y-71145295D01*
X111964285Y-71145295D02*
X112011904Y-71335771D01*
X112011904Y-71335771D02*
X112011904Y-71573866D01*
X112011904Y-71573866D02*
X111964285Y-71764342D01*
X111964285Y-71764342D02*
X111916666Y-71859580D01*
X111916666Y-71859580D02*
X111869047Y-71907200D01*
X111869047Y-71907200D02*
X111773809Y-71954819D01*
X111773809Y-71954819D02*
X111678571Y-71954819D01*
X111678571Y-71954819D02*
X111583333Y-71907200D01*
X111583333Y-71907200D02*
X111535714Y-71859580D01*
X111535714Y-71859580D02*
X111488095Y-71764342D01*
X111488095Y-71764342D02*
X111440476Y-71573866D01*
X111440476Y-71573866D02*
X111440476Y-71335771D01*
X111440476Y-71335771D02*
X111488095Y-71145295D01*
X111488095Y-71145295D02*
X111535714Y-71050057D01*
X111535714Y-71050057D02*
X111583333Y-71002438D01*
X111583333Y-71002438D02*
X111678571Y-70954819D01*
X115035352Y-70954819D02*
X115035352Y-71764342D01*
X115035352Y-71764342D02*
X115082971Y-71859580D01*
X115082971Y-71859580D02*
X115130590Y-71907200D01*
X115130590Y-71907200D02*
X115225828Y-71954819D01*
X115225828Y-71954819D02*
X115416304Y-71954819D01*
X115416304Y-71954819D02*
X115511542Y-71907200D01*
X115511542Y-71907200D02*
X115559161Y-71859580D01*
X115559161Y-71859580D02*
X115606780Y-71764342D01*
X115606780Y-71764342D02*
X115606780Y-70954819D01*
X116035352Y-71050057D02*
X116082971Y-71002438D01*
X116082971Y-71002438D02*
X116178209Y-70954819D01*
X116178209Y-70954819D02*
X116416304Y-70954819D01*
X116416304Y-70954819D02*
X116511542Y-71002438D01*
X116511542Y-71002438D02*
X116559161Y-71050057D01*
X116559161Y-71050057D02*
X116606780Y-71145295D01*
X116606780Y-71145295D02*
X116606780Y-71240533D01*
X116606780Y-71240533D02*
X116559161Y-71383390D01*
X116559161Y-71383390D02*
X115987733Y-71954819D01*
X115987733Y-71954819D02*
X116606780Y-71954819D01*
X132600366Y-87282474D02*
X132600366Y-86282474D01*
X132600366Y-86282474D02*
X132838461Y-86282474D01*
X132838461Y-86282474D02*
X132981318Y-86330093D01*
X132981318Y-86330093D02*
X133076556Y-86425331D01*
X133076556Y-86425331D02*
X133124175Y-86520569D01*
X133124175Y-86520569D02*
X133171794Y-86711045D01*
X133171794Y-86711045D02*
X133171794Y-86853902D01*
X133171794Y-86853902D02*
X133124175Y-87044378D01*
X133124175Y-87044378D02*
X133076556Y-87139616D01*
X133076556Y-87139616D02*
X132981318Y-87234855D01*
X132981318Y-87234855D02*
X132838461Y-87282474D01*
X132838461Y-87282474D02*
X132600366Y-87282474D01*
X134124175Y-87282474D02*
X133552747Y-87282474D01*
X133838461Y-87282474D02*
X133838461Y-86282474D01*
X133838461Y-86282474D02*
X133743223Y-86425331D01*
X133743223Y-86425331D02*
X133647985Y-86520569D01*
X133647985Y-86520569D02*
X133552747Y-86568188D01*
X111333333Y-73359580D02*
X111285714Y-73407200D01*
X111285714Y-73407200D02*
X111142857Y-73454819D01*
X111142857Y-73454819D02*
X111047619Y-73454819D01*
X111047619Y-73454819D02*
X110904762Y-73407200D01*
X110904762Y-73407200D02*
X110809524Y-73311961D01*
X110809524Y-73311961D02*
X110761905Y-73216723D01*
X110761905Y-73216723D02*
X110714286Y-73026247D01*
X110714286Y-73026247D02*
X110714286Y-72883390D01*
X110714286Y-72883390D02*
X110761905Y-72692914D01*
X110761905Y-72692914D02*
X110809524Y-72597676D01*
X110809524Y-72597676D02*
X110904762Y-72502438D01*
X110904762Y-72502438D02*
X111047619Y-72454819D01*
X111047619Y-72454819D02*
X111142857Y-72454819D01*
X111142857Y-72454819D02*
X111285714Y-72502438D01*
X111285714Y-72502438D02*
X111333333Y-72550057D01*
X112190476Y-72454819D02*
X112000000Y-72454819D01*
X112000000Y-72454819D02*
X111904762Y-72502438D01*
X111904762Y-72502438D02*
X111857143Y-72550057D01*
X111857143Y-72550057D02*
X111761905Y-72692914D01*
X111761905Y-72692914D02*
X111714286Y-72883390D01*
X111714286Y-72883390D02*
X111714286Y-73264342D01*
X111714286Y-73264342D02*
X111761905Y-73359580D01*
X111761905Y-73359580D02*
X111809524Y-73407200D01*
X111809524Y-73407200D02*
X111904762Y-73454819D01*
X111904762Y-73454819D02*
X112095238Y-73454819D01*
X112095238Y-73454819D02*
X112190476Y-73407200D01*
X112190476Y-73407200D02*
X112238095Y-73359580D01*
X112238095Y-73359580D02*
X112285714Y-73264342D01*
X112285714Y-73264342D02*
X112285714Y-73026247D01*
X112285714Y-73026247D02*
X112238095Y-72931009D01*
X112238095Y-72931009D02*
X112190476Y-72883390D01*
X112190476Y-72883390D02*
X112095238Y-72835771D01*
X112095238Y-72835771D02*
X111904762Y-72835771D01*
X111904762Y-72835771D02*
X111809524Y-72883390D01*
X111809524Y-72883390D02*
X111761905Y-72931009D01*
X111761905Y-72931009D02*
X111714286Y-73026247D01*
X122505311Y-79375178D02*
X122457692Y-79422798D01*
X122457692Y-79422798D02*
X122314835Y-79470417D01*
X122314835Y-79470417D02*
X122219597Y-79470417D01*
X122219597Y-79470417D02*
X122076740Y-79422798D01*
X122076740Y-79422798D02*
X121981502Y-79327559D01*
X121981502Y-79327559D02*
X121933883Y-79232321D01*
X121933883Y-79232321D02*
X121886264Y-79041845D01*
X121886264Y-79041845D02*
X121886264Y-78898988D01*
X121886264Y-78898988D02*
X121933883Y-78708512D01*
X121933883Y-78708512D02*
X121981502Y-78613274D01*
X121981502Y-78613274D02*
X122076740Y-78518036D01*
X122076740Y-78518036D02*
X122219597Y-78470417D01*
X122219597Y-78470417D02*
X122314835Y-78470417D01*
X122314835Y-78470417D02*
X122457692Y-78518036D01*
X122457692Y-78518036D02*
X122505311Y-78565655D01*
X123457692Y-79470417D02*
X122886264Y-79470417D01*
X123171978Y-79470417D02*
X123171978Y-78470417D01*
X123171978Y-78470417D02*
X123076740Y-78613274D01*
X123076740Y-78613274D02*
X122981502Y-78708512D01*
X122981502Y-78708512D02*
X122886264Y-78756131D01*
X113342363Y-85159685D02*
X113294744Y-85207305D01*
X113294744Y-85207305D02*
X113151887Y-85254924D01*
X113151887Y-85254924D02*
X113056649Y-85254924D01*
X113056649Y-85254924D02*
X112913792Y-85207305D01*
X112913792Y-85207305D02*
X112818554Y-85112066D01*
X112818554Y-85112066D02*
X112770935Y-85016828D01*
X112770935Y-85016828D02*
X112723316Y-84826352D01*
X112723316Y-84826352D02*
X112723316Y-84683495D01*
X112723316Y-84683495D02*
X112770935Y-84493019D01*
X112770935Y-84493019D02*
X112818554Y-84397781D01*
X112818554Y-84397781D02*
X112913792Y-84302543D01*
X112913792Y-84302543D02*
X113056649Y-84254924D01*
X113056649Y-84254924D02*
X113151887Y-84254924D01*
X113151887Y-84254924D02*
X113294744Y-84302543D01*
X113294744Y-84302543D02*
X113342363Y-84350162D01*
X114199506Y-84588257D02*
X114199506Y-85254924D01*
X113961411Y-84207305D02*
X113723316Y-84921590D01*
X113723316Y-84921590D02*
X114342363Y-84921590D01*
X121711139Y-73672766D02*
X121663520Y-73720386D01*
X121663520Y-73720386D02*
X121520663Y-73768005D01*
X121520663Y-73768005D02*
X121425425Y-73768005D01*
X121425425Y-73768005D02*
X121282568Y-73720386D01*
X121282568Y-73720386D02*
X121187330Y-73625147D01*
X121187330Y-73625147D02*
X121139711Y-73529909D01*
X121139711Y-73529909D02*
X121092092Y-73339433D01*
X121092092Y-73339433D02*
X121092092Y-73196576D01*
X121092092Y-73196576D02*
X121139711Y-73006100D01*
X121139711Y-73006100D02*
X121187330Y-72910862D01*
X121187330Y-72910862D02*
X121282568Y-72815624D01*
X121282568Y-72815624D02*
X121425425Y-72768005D01*
X121425425Y-72768005D02*
X121520663Y-72768005D01*
X121520663Y-72768005D02*
X121663520Y-72815624D01*
X121663520Y-72815624D02*
X121711139Y-72863243D01*
X122187330Y-73768005D02*
X122377806Y-73768005D01*
X122377806Y-73768005D02*
X122473044Y-73720386D01*
X122473044Y-73720386D02*
X122520663Y-73672766D01*
X122520663Y-73672766D02*
X122615901Y-73529909D01*
X122615901Y-73529909D02*
X122663520Y-73339433D01*
X122663520Y-73339433D02*
X122663520Y-72958481D01*
X122663520Y-72958481D02*
X122615901Y-72863243D01*
X122615901Y-72863243D02*
X122568282Y-72815624D01*
X122568282Y-72815624D02*
X122473044Y-72768005D01*
X122473044Y-72768005D02*
X122282568Y-72768005D01*
X122282568Y-72768005D02*
X122187330Y-72815624D01*
X122187330Y-72815624D02*
X122139711Y-72863243D01*
X122139711Y-72863243D02*
X122092092Y-72958481D01*
X122092092Y-72958481D02*
X122092092Y-73196576D01*
X122092092Y-73196576D02*
X122139711Y-73291814D01*
X122139711Y-73291814D02*
X122187330Y-73339433D01*
X122187330Y-73339433D02*
X122282568Y-73387052D01*
X122282568Y-73387052D02*
X122473044Y-73387052D01*
X122473044Y-73387052D02*
X122568282Y-73339433D01*
X122568282Y-73339433D02*
X122615901Y-73291814D01*
X122615901Y-73291814D02*
X122663520Y-73196576D01*
X120401912Y-84058145D02*
X120354293Y-84105765D01*
X120354293Y-84105765D02*
X120211436Y-84153384D01*
X120211436Y-84153384D02*
X120116198Y-84153384D01*
X120116198Y-84153384D02*
X119973341Y-84105765D01*
X119973341Y-84105765D02*
X119878103Y-84010526D01*
X119878103Y-84010526D02*
X119830484Y-83915288D01*
X119830484Y-83915288D02*
X119782865Y-83724812D01*
X119782865Y-83724812D02*
X119782865Y-83581955D01*
X119782865Y-83581955D02*
X119830484Y-83391479D01*
X119830484Y-83391479D02*
X119878103Y-83296241D01*
X119878103Y-83296241D02*
X119973341Y-83201003D01*
X119973341Y-83201003D02*
X120116198Y-83153384D01*
X120116198Y-83153384D02*
X120211436Y-83153384D01*
X120211436Y-83153384D02*
X120354293Y-83201003D01*
X120354293Y-83201003D02*
X120401912Y-83248622D01*
X120735246Y-83153384D02*
X121401912Y-83153384D01*
X121401912Y-83153384D02*
X120973341Y-84153384D01*
X111653530Y-87394583D02*
X111320197Y-86918392D01*
X111082102Y-87394583D02*
X111082102Y-86394583D01*
X111082102Y-86394583D02*
X111463054Y-86394583D01*
X111463054Y-86394583D02*
X111558292Y-86442202D01*
X111558292Y-86442202D02*
X111605911Y-86489821D01*
X111605911Y-86489821D02*
X111653530Y-86585059D01*
X111653530Y-86585059D02*
X111653530Y-86727916D01*
X111653530Y-86727916D02*
X111605911Y-86823154D01*
X111605911Y-86823154D02*
X111558292Y-86870773D01*
X111558292Y-86870773D02*
X111463054Y-86918392D01*
X111463054Y-86918392D02*
X111082102Y-86918392D01*
X112034483Y-86489821D02*
X112082102Y-86442202D01*
X112082102Y-86442202D02*
X112177340Y-86394583D01*
X112177340Y-86394583D02*
X112415435Y-86394583D01*
X112415435Y-86394583D02*
X112510673Y-86442202D01*
X112510673Y-86442202D02*
X112558292Y-86489821D01*
X112558292Y-86489821D02*
X112605911Y-86585059D01*
X112605911Y-86585059D02*
X112605911Y-86680297D01*
X112605911Y-86680297D02*
X112558292Y-86823154D01*
X112558292Y-86823154D02*
X111986864Y-87394583D01*
X111986864Y-87394583D02*
X112605911Y-87394583D01*
X108594251Y-80435684D02*
X108551394Y-80478542D01*
X108551394Y-80478542D02*
X108422822Y-80521399D01*
X108422822Y-80521399D02*
X108337108Y-80521399D01*
X108337108Y-80521399D02*
X108208537Y-80478542D01*
X108208537Y-80478542D02*
X108122822Y-80392827D01*
X108122822Y-80392827D02*
X108079965Y-80307113D01*
X108079965Y-80307113D02*
X108037108Y-80135684D01*
X108037108Y-80135684D02*
X108037108Y-80007113D01*
X108037108Y-80007113D02*
X108079965Y-79835684D01*
X108079965Y-79835684D02*
X108122822Y-79749970D01*
X108122822Y-79749970D02*
X108208537Y-79664256D01*
X108208537Y-79664256D02*
X108337108Y-79621399D01*
X108337108Y-79621399D02*
X108422822Y-79621399D01*
X108422822Y-79621399D02*
X108551394Y-79664256D01*
X108551394Y-79664256D02*
X108594251Y-79707113D01*
X109451394Y-80521399D02*
X108937108Y-80521399D01*
X109194251Y-80521399D02*
X109194251Y-79621399D01*
X109194251Y-79621399D02*
X109108537Y-79749970D01*
X109108537Y-79749970D02*
X109022822Y-79835684D01*
X109022822Y-79835684D02*
X108937108Y-79878542D01*
X110308537Y-80521399D02*
X109794251Y-80521399D01*
X110051394Y-80521399D02*
X110051394Y-79621399D01*
X110051394Y-79621399D02*
X109965680Y-79749970D01*
X109965680Y-79749970D02*
X109879965Y-79835684D01*
X109879965Y-79835684D02*
X109794251Y-79878542D01*
X106345301Y-79856893D02*
X106297682Y-79904513D01*
X106297682Y-79904513D02*
X106154825Y-79952132D01*
X106154825Y-79952132D02*
X106059587Y-79952132D01*
X106059587Y-79952132D02*
X105916730Y-79904513D01*
X105916730Y-79904513D02*
X105821492Y-79809274D01*
X105821492Y-79809274D02*
X105773873Y-79714036D01*
X105773873Y-79714036D02*
X105726254Y-79523560D01*
X105726254Y-79523560D02*
X105726254Y-79380703D01*
X105726254Y-79380703D02*
X105773873Y-79190227D01*
X105773873Y-79190227D02*
X105821492Y-79094989D01*
X105821492Y-79094989D02*
X105916730Y-78999751D01*
X105916730Y-78999751D02*
X106059587Y-78952132D01*
X106059587Y-78952132D02*
X106154825Y-78952132D01*
X106154825Y-78952132D02*
X106297682Y-78999751D01*
X106297682Y-78999751D02*
X106345301Y-79047370D01*
X106916730Y-79380703D02*
X106821492Y-79333084D01*
X106821492Y-79333084D02*
X106773873Y-79285465D01*
X106773873Y-79285465D02*
X106726254Y-79190227D01*
X106726254Y-79190227D02*
X106726254Y-79142608D01*
X106726254Y-79142608D02*
X106773873Y-79047370D01*
X106773873Y-79047370D02*
X106821492Y-78999751D01*
X106821492Y-78999751D02*
X106916730Y-78952132D01*
X106916730Y-78952132D02*
X107107206Y-78952132D01*
X107107206Y-78952132D02*
X107202444Y-78999751D01*
X107202444Y-78999751D02*
X107250063Y-79047370D01*
X107250063Y-79047370D02*
X107297682Y-79142608D01*
X107297682Y-79142608D02*
X107297682Y-79190227D01*
X107297682Y-79190227D02*
X107250063Y-79285465D01*
X107250063Y-79285465D02*
X107202444Y-79333084D01*
X107202444Y-79333084D02*
X107107206Y-79380703D01*
X107107206Y-79380703D02*
X106916730Y-79380703D01*
X106916730Y-79380703D02*
X106821492Y-79428322D01*
X106821492Y-79428322D02*
X106773873Y-79475941D01*
X106773873Y-79475941D02*
X106726254Y-79571179D01*
X106726254Y-79571179D02*
X106726254Y-79761655D01*
X106726254Y-79761655D02*
X106773873Y-79856893D01*
X106773873Y-79856893D02*
X106821492Y-79904513D01*
X106821492Y-79904513D02*
X106916730Y-79952132D01*
X106916730Y-79952132D02*
X107107206Y-79952132D01*
X107107206Y-79952132D02*
X107202444Y-79904513D01*
X107202444Y-79904513D02*
X107250063Y-79856893D01*
X107250063Y-79856893D02*
X107297682Y-79761655D01*
X107297682Y-79761655D02*
X107297682Y-79571179D01*
X107297682Y-79571179D02*
X107250063Y-79475941D01*
X107250063Y-79475941D02*
X107202444Y-79428322D01*
X107202444Y-79428322D02*
X107107206Y-79380703D01*
X129959706Y-87359580D02*
X129912087Y-87407200D01*
X129912087Y-87407200D02*
X129769230Y-87454819D01*
X129769230Y-87454819D02*
X129673992Y-87454819D01*
X129673992Y-87454819D02*
X129531135Y-87407200D01*
X129531135Y-87407200D02*
X129435897Y-87311961D01*
X129435897Y-87311961D02*
X129388278Y-87216723D01*
X129388278Y-87216723D02*
X129340659Y-87026247D01*
X129340659Y-87026247D02*
X129340659Y-86883390D01*
X129340659Y-86883390D02*
X129388278Y-86692914D01*
X129388278Y-86692914D02*
X129435897Y-86597676D01*
X129435897Y-86597676D02*
X129531135Y-86502438D01*
X129531135Y-86502438D02*
X129673992Y-86454819D01*
X129673992Y-86454819D02*
X129769230Y-86454819D01*
X129769230Y-86454819D02*
X129912087Y-86502438D01*
X129912087Y-86502438D02*
X129959706Y-86550057D01*
X130340659Y-86550057D02*
X130388278Y-86502438D01*
X130388278Y-86502438D02*
X130483516Y-86454819D01*
X130483516Y-86454819D02*
X130721611Y-86454819D01*
X130721611Y-86454819D02*
X130816849Y-86502438D01*
X130816849Y-86502438D02*
X130864468Y-86550057D01*
X130864468Y-86550057D02*
X130912087Y-86645295D01*
X130912087Y-86645295D02*
X130912087Y-86740533D01*
X130912087Y-86740533D02*
X130864468Y-86883390D01*
X130864468Y-86883390D02*
X130293040Y-87454819D01*
X130293040Y-87454819D02*
X130912087Y-87454819D01*
X102891086Y-79396576D02*
X102891086Y-79872767D01*
X102557753Y-78872767D02*
X102891086Y-79396576D01*
X102891086Y-79396576D02*
X103224419Y-78872767D01*
X104081562Y-79872767D02*
X103510134Y-79872767D01*
X103795848Y-79872767D02*
X103795848Y-78872767D01*
X103795848Y-78872767D02*
X103700610Y-79015624D01*
X103700610Y-79015624D02*
X103605372Y-79110862D01*
X103605372Y-79110862D02*
X103510134Y-79158481D01*
X106081957Y-83931548D02*
X106034338Y-83979168D01*
X106034338Y-83979168D02*
X105891481Y-84026787D01*
X105891481Y-84026787D02*
X105796243Y-84026787D01*
X105796243Y-84026787D02*
X105653386Y-83979168D01*
X105653386Y-83979168D02*
X105558148Y-83883929D01*
X105558148Y-83883929D02*
X105510529Y-83788691D01*
X105510529Y-83788691D02*
X105462910Y-83598215D01*
X105462910Y-83598215D02*
X105462910Y-83455358D01*
X105462910Y-83455358D02*
X105510529Y-83264882D01*
X105510529Y-83264882D02*
X105558148Y-83169644D01*
X105558148Y-83169644D02*
X105653386Y-83074406D01*
X105653386Y-83074406D02*
X105796243Y-83026787D01*
X105796243Y-83026787D02*
X105891481Y-83026787D01*
X105891481Y-83026787D02*
X106034338Y-83074406D01*
X106034338Y-83074406D02*
X106081957Y-83122025D01*
X107034338Y-84026787D02*
X106462910Y-84026787D01*
X106748624Y-84026787D02*
X106748624Y-83026787D01*
X106748624Y-83026787D02*
X106653386Y-83169644D01*
X106653386Y-83169644D02*
X106558148Y-83264882D01*
X106558148Y-83264882D02*
X106462910Y-83312501D01*
X107367672Y-83026787D02*
X107986719Y-83026787D01*
X107986719Y-83026787D02*
X107653386Y-83407739D01*
X107653386Y-83407739D02*
X107796243Y-83407739D01*
X107796243Y-83407739D02*
X107891481Y-83455358D01*
X107891481Y-83455358D02*
X107939100Y-83502977D01*
X107939100Y-83502977D02*
X107986719Y-83598215D01*
X107986719Y-83598215D02*
X107986719Y-83836310D01*
X107986719Y-83836310D02*
X107939100Y-83931548D01*
X107939100Y-83931548D02*
X107891481Y-83979168D01*
X107891481Y-83979168D02*
X107796243Y-84026787D01*
X107796243Y-84026787D02*
X107510529Y-84026787D01*
X107510529Y-84026787D02*
X107415291Y-83979168D01*
X107415291Y-83979168D02*
X107367672Y-83931548D01*
X102885022Y-70154147D02*
X102551689Y-69677956D01*
X102313594Y-70154147D02*
X102313594Y-69154147D01*
X102313594Y-69154147D02*
X102694546Y-69154147D01*
X102694546Y-69154147D02*
X102789784Y-69201766D01*
X102789784Y-69201766D02*
X102837403Y-69249385D01*
X102837403Y-69249385D02*
X102885022Y-69344623D01*
X102885022Y-69344623D02*
X102885022Y-69487480D01*
X102885022Y-69487480D02*
X102837403Y-69582718D01*
X102837403Y-69582718D02*
X102789784Y-69630337D01*
X102789784Y-69630337D02*
X102694546Y-69677956D01*
X102694546Y-69677956D02*
X102313594Y-69677956D01*
X103742165Y-69487480D02*
X103742165Y-70154147D01*
X103504070Y-69106528D02*
X103265975Y-69820813D01*
X103265975Y-69820813D02*
X103885022Y-69820813D01*
X118012674Y-87408729D02*
X117679341Y-86932538D01*
X117441246Y-87408729D02*
X117441246Y-86408729D01*
X117441246Y-86408729D02*
X117822198Y-86408729D01*
X117822198Y-86408729D02*
X117917436Y-86456348D01*
X117917436Y-86456348D02*
X117965055Y-86503967D01*
X117965055Y-86503967D02*
X118012674Y-86599205D01*
X118012674Y-86599205D02*
X118012674Y-86742062D01*
X118012674Y-86742062D02*
X117965055Y-86837300D01*
X117965055Y-86837300D02*
X117917436Y-86884919D01*
X117917436Y-86884919D02*
X117822198Y-86932538D01*
X117822198Y-86932538D02*
X117441246Y-86932538D01*
X118346008Y-86408729D02*
X118965055Y-86408729D01*
X118965055Y-86408729D02*
X118631722Y-86789681D01*
X118631722Y-86789681D02*
X118774579Y-86789681D01*
X118774579Y-86789681D02*
X118869817Y-86837300D01*
X118869817Y-86837300D02*
X118917436Y-86884919D01*
X118917436Y-86884919D02*
X118965055Y-86980157D01*
X118965055Y-86980157D02*
X118965055Y-87218252D01*
X118965055Y-87218252D02*
X118917436Y-87313490D01*
X118917436Y-87313490D02*
X118869817Y-87361110D01*
X118869817Y-87361110D02*
X118774579Y-87408729D01*
X118774579Y-87408729D02*
X118488865Y-87408729D01*
X118488865Y-87408729D02*
X118393627Y-87361110D01*
X118393627Y-87361110D02*
X118346008Y-87313490D01*
D12*
X106086991Y-82360880D02*
X106039372Y-82408500D01*
X106039372Y-82408500D02*
X105896515Y-82456119D01*
X105896515Y-82456119D02*
X105801277Y-82456119D01*
X105801277Y-82456119D02*
X105658420Y-82408500D01*
X105658420Y-82408500D02*
X105563182Y-82313261D01*
X105563182Y-82313261D02*
X105515563Y-82218023D01*
X105515563Y-82218023D02*
X105467944Y-82027547D01*
X105467944Y-82027547D02*
X105467944Y-81884690D01*
X105467944Y-81884690D02*
X105515563Y-81694214D01*
X105515563Y-81694214D02*
X105563182Y-81598976D01*
X105563182Y-81598976D02*
X105658420Y-81503738D01*
X105658420Y-81503738D02*
X105801277Y-81456119D01*
X105801277Y-81456119D02*
X105896515Y-81456119D01*
X105896515Y-81456119D02*
X106039372Y-81503738D01*
X106039372Y-81503738D02*
X106086991Y-81551357D01*
X107039372Y-82456119D02*
X106467944Y-82456119D01*
X106753658Y-82456119D02*
X106753658Y-81456119D01*
X106753658Y-81456119D02*
X106658420Y-81598976D01*
X106658420Y-81598976D02*
X106563182Y-81694214D01*
X106563182Y-81694214D02*
X106467944Y-81741833D01*
X107420325Y-81551357D02*
X107467944Y-81503738D01*
X107467944Y-81503738D02*
X107563182Y-81456119D01*
X107563182Y-81456119D02*
X107801277Y-81456119D01*
X107801277Y-81456119D02*
X107896515Y-81503738D01*
X107896515Y-81503738D02*
X107944134Y-81551357D01*
X107944134Y-81551357D02*
X107991753Y-81646595D01*
X107991753Y-81646595D02*
X107991753Y-81741833D01*
X107991753Y-81741833D02*
X107944134Y-81884690D01*
X107944134Y-81884690D02*
X107372706Y-82456119D01*
X107372706Y-82456119D02*
X107991753Y-82456119D01*
%TO.C,SW1*%
D13*
X99528485Y-69047802D02*
X98738485Y-69047802D01*
X97728485Y-69647802D02*
X97728485Y-75347802D01*
X100578485Y-70897802D02*
X100578485Y-72597802D01*
X100578485Y-73897802D02*
X100578485Y-74097802D01*
X98738485Y-75947802D02*
X99528485Y-75947802D01*
%TO.C,U1*%
X121919426Y-82650000D02*
X121919426Y-86410000D01*
X121919426Y-86410000D02*
X123179426Y-86410000D01*
X128739426Y-82650000D02*
X128739426Y-86410000D01*
X128739426Y-86410000D02*
X127479426Y-86410000D01*
X128639426Y-81370000D02*
X128969426Y-81130000D01*
X128969426Y-81610000D01*
X128639426Y-81370000D01*
G36*
X128969426Y-81610000D02*
G01*
X128639426Y-81370000D01*
X128969426Y-81130000D01*
X128969426Y-81610000D01*
G37*
%TO.C,J3*%
X131190000Y-62640898D02*
X131190000Y-64020898D01*
X129810000Y-62640898D02*
X131190000Y-62640898D01*
X128540000Y-65400898D02*
X120810000Y-65400898D01*
X128540000Y-62640898D02*
X128540000Y-65400898D01*
X128540000Y-62640898D02*
X120810000Y-62640898D01*
X120810000Y-62640898D02*
X120810000Y-65400898D01*
%TO.C,J1*%
X116190000Y-62620000D02*
X116190000Y-64000000D01*
X114810000Y-62620000D02*
X116190000Y-62620000D01*
X113540000Y-65380000D02*
X105810000Y-65380000D01*
X113540000Y-62620000D02*
X113540000Y-65380000D01*
X113540000Y-62620000D02*
X105810000Y-62620000D01*
X105810000Y-62620000D02*
X105810000Y-65380000D01*
%TO.C,FB1*%
X111494028Y-82608439D02*
X111494028Y-82933997D01*
X110474028Y-82608439D02*
X110474028Y-82933997D01*
%TO.C,C3*%
X113100231Y-70530545D02*
X113381391Y-70530545D01*
X113100231Y-69510545D02*
X113381391Y-69510545D01*
%TO.C,R1*%
X133689283Y-82328772D02*
X133996565Y-82328772D01*
X133689283Y-81568772D02*
X133996565Y-81568772D01*
%TO.C,C5*%
X108521968Y-75389477D02*
X108521968Y-75605149D01*
X107801968Y-75389477D02*
X107801968Y-75605149D01*
%TO.C,J2*%
X119786894Y-92055388D02*
X119786894Y-89295388D01*
X112056894Y-92055388D02*
X119786894Y-92055388D01*
X112056894Y-92055388D02*
X112056894Y-89295388D01*
X112056894Y-89295388D02*
X119786894Y-89295388D01*
X110786894Y-92055388D02*
X109406894Y-92055388D01*
X109406894Y-92055388D02*
X109406894Y-90675388D01*
%TO.C,R5*%
X125684824Y-75362341D02*
X125684824Y-75669623D01*
X124924824Y-75362341D02*
X124924824Y-75669623D01*
%TO.C,C10*%
X113142164Y-71860000D02*
X113357836Y-71860000D01*
X113142164Y-71140000D02*
X113357836Y-71140000D01*
%TO.C,U2*%
X111524207Y-74298730D02*
X111184207Y-73828730D01*
X111864207Y-73828730D01*
X111524207Y-74298730D01*
G36*
X111524207Y-74298730D02*
G01*
X111184207Y-73828730D01*
X111864207Y-73828730D01*
X111524207Y-74298730D01*
G37*
X119384207Y-81068730D02*
X118934207Y-81068730D01*
X119384207Y-80618730D02*
X119384207Y-81068730D01*
X119384207Y-73848730D02*
X119384207Y-74298730D01*
X118934207Y-73848730D02*
X119384207Y-73848730D01*
X112614207Y-81068730D02*
X112164207Y-81068730D01*
X112164207Y-81068730D02*
X112164207Y-80618730D01*
X112164207Y-74298730D02*
X112164207Y-73848730D01*
X112164207Y-73848730D02*
X112614207Y-73848730D01*
%TO.C,D1*%
X134073461Y-85127655D02*
X134073461Y-82842655D01*
X134073461Y-82842655D02*
X132603461Y-82842655D01*
X132603461Y-82842655D02*
X132603461Y-85127655D01*
%TO.C,C6*%
X110130420Y-74334476D02*
X110130420Y-74118804D01*
X109410420Y-74334476D02*
X109410420Y-74118804D01*
%TO.C,C1*%
X125068174Y-79735000D02*
X125590678Y-79735000D01*
X125068174Y-78265000D02*
X125590678Y-78265000D01*
%TO.C,C4*%
X113414978Y-83995378D02*
X113630650Y-83995378D01*
X113414978Y-83275378D02*
X113630650Y-83275378D01*
%TO.C,C9*%
X122238632Y-74845643D02*
X122238632Y-75061315D01*
X121518632Y-74845643D02*
X121518632Y-75061315D01*
%TO.C,C7*%
X118797945Y-83979493D02*
X118582273Y-83979493D01*
X118797945Y-83259493D02*
X118582273Y-83259493D01*
%TO.C,R2*%
X113973838Y-87319764D02*
X113666556Y-87319764D01*
X113973838Y-86559764D02*
X113666556Y-86559764D01*
%TO.C,C11*%
X110140654Y-78616450D02*
X110140654Y-78400778D01*
X109420654Y-78616450D02*
X109420654Y-78400778D01*
%TO.C,C8*%
X108521968Y-77389477D02*
X108521968Y-77605149D01*
X107801968Y-77389477D02*
X107801968Y-77605149D01*
%TO.C,C2*%
X130861373Y-84573339D02*
X130861373Y-84050835D01*
X129391373Y-84573339D02*
X129391373Y-84050835D01*
%TO.C,J4*%
X137699957Y-72182094D02*
X137249957Y-72182094D01*
X137249957Y-80182094D02*
X137249957Y-79882094D01*
X137249957Y-79882094D02*
X137699957Y-79882094D01*
X137249957Y-72182094D02*
X137249957Y-71882094D01*
X137249957Y-71882094D02*
X137099957Y-71882094D01*
X137099957Y-80182094D02*
X137249957Y-80182094D01*
X134699957Y-71882094D02*
X133299957Y-71882094D01*
X133299957Y-80182094D02*
X134699957Y-80182094D01*
X131549957Y-77832094D02*
X131549957Y-78832094D01*
X131549957Y-74232094D02*
X131549957Y-73232094D01*
X131124957Y-77832094D02*
X131549957Y-77832094D01*
X131124957Y-77107094D02*
X131124957Y-77832094D01*
%TO.C,Y1*%
X107371968Y-74437313D02*
X103951968Y-74437313D01*
X103951968Y-74437313D02*
X103951968Y-78557313D01*
%TO.C,C13*%
X109332651Y-83931968D02*
X109116979Y-83931968D01*
X109332651Y-83211968D02*
X109116979Y-83211968D01*
%TO.C,R4*%
X103380000Y-71403641D02*
X103380000Y-71096359D01*
X102620000Y-71403641D02*
X102620000Y-71096359D01*
%TO.C,R3*%
X116025700Y-87333910D02*
X116332982Y-87333910D01*
X116025700Y-86573910D02*
X116332982Y-86573910D01*
%TO.C,C12*%
X109337685Y-82360000D02*
X109122013Y-82360000D01*
X109337685Y-81640000D02*
X109122013Y-81640000D01*
%TD*%
M02*
